<svg id="type_layout" xmlns="http://www.w3.org/2000/svg" xmlns:xlink="http://www.w3.org/1999/xlink" viewBox="0 0 803.28 497">
  <defs>
    <style>
      .cls-1 {
        fill: #231f20;
      }
    </style>
    <image id="image" width="1024" height="1024" xlink:href="peach.png"/>
  </defs>
  <path id="but1" class="cls-1" d="M30.37,41.84a21.73,21.73,0,0,1,4.13-.36c2.26,0,3.72.39,4.81,1.27a3.69,3.69,0,0,1,1.46,3.09,4.15,4.15,0,0,1-3,3.85v.06a4.51,4.51,0,0,1,3.62,4.39,4.74,4.74,0,0,1-1.48,3.51c-1.23,1.12-3.2,1.64-6.06,1.64a27,27,0,0,1-3.51-.21ZM32.63,49h2c2.4,0,3.8-1.25,3.8-2.94,0-2.06-1.56-2.86-3.85-2.86a9.41,9.41,0,0,0-2,.16Zm0,8.4a13.24,13.24,0,0,0,1.9.1c2.34,0,4.5-.86,4.5-3.41,0-2.39-2.06-3.38-4.53-3.38H32.63ZM54.91,55.7c0,1.3,0,2.44.11,3.43H53l-.13-2.05h0a4.75,4.75,0,0,1-4.16,2.34c-2,0-4.35-1.09-4.35-5.51V46.55h2.29v7c0,2.4.73,4,2.81,4a3.33,3.33,0,0,0,3-2.08,3.38,3.38,0,0,0,.2-1.17V46.55h2.29Zm6.55-12.77v3.62h3.28v1.74H61.46v6.79c0,1.55.44,2.44,1.72,2.44a4.87,4.87,0,0,0,1.32-.16l.11,1.72a5.67,5.67,0,0,1-2,.31,3.18,3.18,0,0,1-2.47-1,4.68,4.68,0,0,1-.88-3.28V48.29H57.28V46.55h1.95v-3Z"/>
  <path id="no" class="cls-1" d="M46.35,77c0-1.3,0-2.36-.11-3.4h2l.13,2.08h.05a4.63,4.63,0,0,1,4.16-2.37c1.74,0,4.45,1,4.45,5.36v7.51H54.77V78.88c0-2-.75-3.72-2.91-3.72a3.24,3.24,0,0,0-3.07,2.34,3.38,3.38,0,0,0-.16,1.06v7.57H46.35Zm25.81,2.79c0,4.65-3.22,6.68-6.26,6.68-3.41,0-6-2.5-6-6.48,0-4.21,2.75-6.68,6.24-6.68S72.16,75.89,72.16,79.74Zm-10,.13c0,2.75,1.59,4.83,3.82,4.83s3.82-2,3.82-4.89c0-2.13-1.06-4.83-3.77-4.83S62.18,77.47,62.18,79.87Z"/>
  <path id="matter" class="cls-1" d="M81.88,77c0-1.3,0-2.36-.1-3.4h2l.1,2H84a4.34,4.34,0,0,1,4-2.31,3.71,3.71,0,0,1,3.56,2.52h.06a5.05,5.05,0,0,1,1.4-1.63,4.25,4.25,0,0,1,2.78-.89c1.67,0,4.14,1.09,4.14,5.46v7.41H97.61V79c0-2.42-.88-3.88-2.73-3.88a3,3,0,0,0-2.7,2.08A3.59,3.59,0,0,0,92,78.36v7.77H89.76V78.59c0-2-.89-3.46-2.63-3.46a3.12,3.12,0,0,0-2.83,2.29,3.17,3.17,0,0,0-.18,1.12v7.59H81.88Zm28.65,9.18-.18-1.58h-.08a4.7,4.7,0,0,1-3.85,1.87,3.59,3.59,0,0,1-3.84-3.62c0-3,2.7-4.7,7.56-4.68v-.26A2.59,2.59,0,0,0,107.28,75a6.17,6.17,0,0,0-3.27.94l-.52-1.51a7.75,7.75,0,0,1,4.13-1.12c3.85,0,4.78,2.63,4.78,5.15v4.71a18.3,18.3,0,0,0,.21,3Zm-.34-6.42c-2.49,0-5.33.39-5.33,2.83A2,2,0,0,0,107,84.73a3.12,3.12,0,0,0,3-2.11,2.29,2.29,0,0,0,.13-.73Zm8.56-9.78v3.62H122v1.74h-3.27v6.79c0,1.56.44,2.44,1.71,2.44a5,5,0,0,0,1.33-.16l.1,1.72a5.61,5.61,0,0,1-2,.31,3.17,3.17,0,0,1-2.47-1,4.67,4.67,0,0,1-.89-3.28V75.29h-2V73.55h2v-3Zm8.6,0v3.62h3.28v1.74h-3.28v6.79c0,1.56.45,2.44,1.72,2.44a5,5,0,0,0,1.33-.16l.1,1.72a5.63,5.63,0,0,1-2,.31,3.2,3.2,0,0,1-2.47-1,4.67,4.67,0,0,1-.88-3.28V75.29h-2V73.55h2v-3Zm7,10.33c.05,3.09,2,4.36,4.32,4.36a8.16,8.16,0,0,0,3.48-.65l.39,1.64a10,10,0,0,1-4.18.78c-3.88,0-6.19-2.55-6.19-6.34s2.23-6.79,5.9-6.79c4.11,0,5.2,3.62,5.2,5.93a8,8,0,0,1-.08,1.07ZM141,78.62c0-1.46-.6-3.72-3.17-3.72-2.32,0-3.33,2.13-3.51,3.72Zm5-1.15c0-1.48,0-2.75-.1-3.92h2l.08,2.47h.1a3.79,3.79,0,0,1,3.49-2.76,2.57,2.57,0,0,1,.65.08V75.5a3.07,3.07,0,0,0-.78-.08,3.21,3.21,0,0,0-3.07,2.94,6.52,6.52,0,0,0-.11,1.06v6.71h-2.26Z"/>
  <path id="what" class="cls-1" d="M17.17,99.55l1.66,6.39c.36,1.41.7,2.71.94,4h.07c.29-1.28.71-2.63,1.12-4L23,99.55h1.92l1.95,6.29c.47,1.51.83,2.83,1.12,4.11h.08a34.75,34.75,0,0,1,1-4.08l1.79-6.32H33.1l-4.05,12.58H27l-1.93-6A42.64,42.64,0,0,1,23.93,102h-.05a39.24,39.24,0,0,1-1.15,4.16l-2,6H18.62L14.83,99.55Zm18.22-5.88h2.29v7.85h0a4.3,4.3,0,0,1,1.64-1.61,4.71,4.71,0,0,1,2.34-.65c1.69,0,4.39,1,4.39,5.38v7.49H43.82V104.9c0-2-.76-3.74-2.92-3.74a3.27,3.27,0,0,0-3.06,2.29,2.76,2.76,0,0,0-.16,1.09v7.59H35.39Zm21.4,18.46-.18-1.59h-.08a4.68,4.68,0,0,1-3.85,1.88,3.59,3.59,0,0,1-3.85-3.62c0-3,2.71-4.7,7.57-4.68v-.26A2.59,2.59,0,0,0,53.54,101a6.23,6.23,0,0,0-3.28.94l-.52-1.51a7.79,7.79,0,0,1,4.14-1.12c3.85,0,4.78,2.63,4.78,5.15v4.71a17.26,17.26,0,0,0,.21,3Zm-.34-6.42c-2.49,0-5.33.39-5.33,2.83a2,2,0,0,0,2.16,2.19,3.12,3.12,0,0,0,3-2.11,2.29,2.29,0,0,0,.13-.73ZM65,95.93v3.62h3.27v1.74H65v6.79c0,1.55.44,2.44,1.71,2.44a5,5,0,0,0,1.33-.16l.1,1.72a5.63,5.63,0,0,1-2,.31,3.2,3.2,0,0,1-2.47-1,4.68,4.68,0,0,1-.88-3.28v-6.86h-2V99.55h2v-3Z"/>
  <path id="you1" class="cls-1" d="M65.73,128.42l2.76,7.43c.28.83.59,1.82.8,2.58h0c.24-.76.5-1.72.81-2.63l2.5-7.38h2.41l-3.43,9c-1.64,4.31-2.75,6.52-4.31,7.87a6.3,6.3,0,0,1-2.81,1.49l-.57-1.93a5.93,5.93,0,0,0,2-1.12,6.9,6.9,0,0,0,1.92-2.54,1.55,1.55,0,0,0,.18-.55,2.1,2.1,0,0,0-.15-.6l-4.66-11.59Zm22.54,6.18c0,4.66-3.22,6.69-6.26,6.69-3.41,0-6-2.5-6-6.48,0-4.21,2.76-6.68,6.24-6.68S88.27,130.76,88.27,134.6Zm-10,.13c0,2.76,1.58,4.84,3.82,4.84s3.82-2,3.82-4.89c0-2.13-1.06-4.83-3.77-4.83S78.29,132.34,78.29,134.73Zm23.4,2.84c0,1.3,0,2.44.1,3.43h-2L99.63,139h0a4.74,4.74,0,0,1-4.16,2.34c-2,0-4.34-1.1-4.34-5.52v-7.35h2.29v7c0,2.4.73,4,2.81,4a3.3,3.3,0,0,0,3-2.08,3.38,3.38,0,0,0,.21-1.17v-7.72h2.29Z"/>
  <path id="do" class="cls-1" d="M54.22,154.05v30.77c0,2.27.06,4.84.21,6.58H50.28L50.07,187H50a9.42,9.42,0,0,1-8.68,5c-6.15,0-10.89-5.21-10.89-12.94-.05-8.47,5.21-13.68,11.42-13.68,3.89,0,6.52,1.84,7.68,3.89h.1v-15.2ZM49.59,176.3a8.09,8.09,0,0,0-.21-2A6.81,6.81,0,0,0,42.7,169c-4.79,0-7.63,4.21-7.63,9.84,0,5.15,2.53,9.41,7.53,9.41a7,7,0,0,0,6.78-5.52,7.92,7.92,0,0,0,.21-2ZM85,178.46C85,187.88,78.42,192,72.27,192c-6.89,0-12.21-5-12.21-13.1,0-8.52,5.58-13.52,12.63-13.52C80,165.36,85,170.67,85,178.46Zm-20.21.26c0,5.58,3.21,9.79,7.74,9.79s7.73-4.16,7.73-9.89c0-4.32-2.16-9.79-7.63-9.79S64.74,173.88,64.74,178.72Z"/>
  <path id="that" class="cls-1" d="M145,107.26V96.6h3.84v26H145V111.84H113.81v-4.58Zm5.72,18.67v4.58H135v.1a8.47,8.47,0,0,1,3.22,3.28,9.3,9.3,0,0,1,1.3,4.68c0,3.38-2.08,8.79-10.76,8.79h-15v-4.58h14.46c4.06,0,7.49-1.51,7.49-5.82a6.57,6.57,0,0,0-4.58-6.14,5.52,5.52,0,0,0-2.18-.31H113.81v-4.58Zm-36.93,42.8,3.18-.37v-.15a9.38,9.38,0,0,1-3.75-7.7c0-5.09,3.59-7.7,7.23-7.7,6.08,0,9.41,5.41,9.36,15.14h.52c2.08,0,5.82-.57,5.82-5.72a12.52,12.52,0,0,0-1.87-6.56l3-1a15.65,15.65,0,0,1,2.23,8.27c0,7.7-5.25,9.57-10.29,9.57h-9.41a35.7,35.7,0,0,0-6,.42Zm12.85-.68c.1-5-.78-10.66-5.67-10.66a4.06,4.06,0,0,0-4.37,4.32,6.27,6.27,0,0,0,4.21,6.08,4.68,4.68,0,0,0,1.46.26Zm19.55,17.11H139v6.55H135.5v-6.55H121.93c-3.12,0-4.89.88-4.89,3.43a10,10,0,0,0,.31,2.65l-3.43.21a11,11,0,0,1-.63-4,6.32,6.32,0,0,1,1.93-4.94c1.35-1.31,3.59-1.77,6.55-1.77H135.5v-3.9H139v3.9h6Z"/>
  <path id="seed" class="cls-1" d="M117.58,212.75a12,12,0,0,0-1.82,6c0,3.33,1.67,4.89,3.75,4.89s3.38-1.3,4.63-4.68c1.61-4.52,4.11-6.65,7.12-6.65,4.06,0,7.39,3.27,7.39,8.68a12.6,12.6,0,0,1-1.56,6.19l-3.33-1.15a9.78,9.78,0,0,0,1.45-5.14c0-2.71-1.56-4.22-3.43-4.22-2.08,0-3,1.51-4.26,4.79-1.67,4.37-3.85,6.6-7.6,6.6-4.42,0-7.54-3.43-7.54-9.41a14.34,14.34,0,0,1,1.72-7.07Zm7.08,23.77c-6.19.1-8.74,4-8.74,8.63a16.56,16.56,0,0,0,1.3,7l-3.28.78a20.57,20.57,0,0,1-1.56-8.38c0-7.74,5.1-12.37,12.69-12.37s13.58,4.47,13.58,11.8c0,8.22-7.23,10.4-11.86,10.4a17.86,17.86,0,0,1-2.13-.15Zm3.27,13.41c2.92,0,7.44-1.19,7.44-6.34,0-4.63-4.26-6.66-7.44-7Zm-3.27,12.64c-6.19.1-8.74,4.05-8.74,8.63a16.53,16.53,0,0,0,1.3,7l-3.28.78a20.52,20.52,0,0,1-1.56-8.37c0-7.75,5.1-12.38,12.69-12.38s13.58,4.47,13.58,11.8c0,8.22-7.23,10.4-11.86,10.4a17.86,17.86,0,0,1-2.13-.15ZM127.93,276c2.92.06,7.44-1.19,7.44-6.34,0-4.63-4.26-6.66-7.44-7Zm21.9,31.83H119.41c-2.24,0-4.79.05-6.51.21v-4.11l4.37-.21v-.1a9.33,9.33,0,0,1-4.94-8.59c0-6.08,5.15-10.76,12.8-10.76,8.37-.05,13.52,5.15,13.52,11.29,0,3.84-1.82,6.44-3.85,7.59v.1h15Zm-22-4.58a7.85,7.85,0,0,0,1.92-.21,6.72,6.72,0,0,0,5.31-6.6c0-4.73-4.16-7.54-9.73-7.54-5.09,0-9.31,2.5-9.31,7.43a6.88,6.88,0,0,0,5.47,6.71,7.68,7.68,0,0,0,2,.21Z"/>
  <path id="will" class="cls-1" d="M169.39,46.45l2.37,9.1c.51,2,1,3.85,1.33,5.7h.11c.41-1.81,1-3.74,1.59-5.66l2.92-9.14h2.74l2.78,9c.66,2.14,1.18,4,1.59,5.84h.11a53.16,53.16,0,0,1,1.37-5.81l2.55-9h3.22L186.3,64.36h-3l-2.74-8.55A58.34,58.34,0,0,1,179,49.93h-.08a51.49,51.49,0,0,1-1.62,5.92l-2.89,8.51h-3l-5.4-17.91Zm29.56-5a2,2,0,0,1-4,0,2,2,0,0,1,2-2A1.94,1.94,0,0,1,199,41.42Zm-3.63,22.94V46.45h3.26V64.36ZM204,38.09h3.26V64.36H204Zm8.73,0H216V64.36h-3.26Z"/>
  <path id="grow" class="cls-1" d="M260.82,36.88c-.11,2-.23,4.2-.23,7.55v16c0,6.3-1.25,10.16-3.91,12.54s-6.53,3.3-10,3.3c-3.29,0-6.92-.8-9.14-2.27l1.25-3.81a15.47,15.47,0,0,0,8.06,2.16c5.11,0,8.86-2.67,8.86-9.6V59.65h-.11a9.84,9.84,0,0,1-8.75,4.6c-6.81,0-11.69-5.79-11.69-13.4,0-9.31,6.07-14.59,12.38-14.59,4.76,0,7.38,2.49,8.57,4.76h.11l.23-4.14Zm-5.17,10.84a7,7,0,0,0-.28-2.27,7.2,7.2,0,0,0-7-5.28c-4.77,0-8.18,4-8.18,10.39,0,5.4,2.73,9.88,8.12,9.88a7.3,7.3,0,0,0,6.93-5.11,8.77,8.77,0,0,0,.39-2.67Zm12.89-2.27c0-3.23-.05-6-.22-8.57h4.37l.17,5.39h.23c1.25-3.69,4.25-6,7.6-6a5.12,5.12,0,0,1,1.42.17v4.71a7.13,7.13,0,0,0-1.7-.17c-3.52,0-6,2.67-6.7,6.41a14.47,14.47,0,0,0-.23,2.33V64.36h-4.94Zm42.87,4.94c0,10.17-7,14.6-13.68,14.6-7.44,0-13.17-5.46-13.17-14.14,0-9.2,6-14.59,13.62-14.59C306.07,36.26,311.41,42,311.41,50.39Zm-21.8.29c0,6,3.46,10.56,8.35,10.56s8.34-4.49,8.34-10.68C306.3,45.91,304,40,298.07,40S289.61,45.45,289.61,50.68Zm29.7-13.8,3.63,14c.79,3.06,1.53,5.9,2,8.74h.17c.63-2.78,1.54-5.73,2.45-8.69l4.48-14h4.2l4.26,13.74c1,3.29,1.82,6.19,2.44,9h.17a83.34,83.34,0,0,1,2.1-8.91l3.92-13.8h4.94l-8.86,27.48h-4.54l-4.2-13.12a89.79,89.79,0,0,1-2.44-9H334a82.13,82.13,0,0,1-2.49,9.08L327,64.36h-4.54L314.2,36.88Z"/>
  <path id="toBe" class="cls-1" d="M199.05,88.93v3.62h3.27v1.74h-3.27v6.79c0,1.56.44,2.44,1.71,2.44a5,5,0,0,0,1.33-.16l.1,1.72a5.63,5.63,0,0,1-2,.31,3.2,3.2,0,0,1-2.47-1,4.67,4.67,0,0,1-.88-3.28V94.29h-1.95V92.55h1.95v-3Zm17.08,9.81c0,4.65-3.23,6.68-6.27,6.68-3.4,0-6-2.5-6-6.48,0-4.21,2.76-6.68,6.24-6.68S216.13,94.89,216.13,98.74Zm-10,.13c0,2.75,1.59,4.83,3.83,4.83s3.82-2,3.82-4.89c0-2.13-1.07-4.83-3.77-4.83S206.14,96.47,206.14,98.87Zm18.28,6.26c.05-.86.1-2.13.1-3.25V86.67h2.27v7.91h.05a4.68,4.68,0,0,1,4.29-2.32c3.12,0,5.33,2.6,5.3,6.42,0,4.5-2.83,6.74-5.64,6.74a4.48,4.48,0,0,1-4.21-2.37h-.08l-.1,2.08Zm2.37-5a4.49,4.49,0,0,0,.1.83,3.53,3.53,0,0,0,3.43,2.68c2.4,0,3.83-1.95,3.83-4.84,0-2.52-1.3-4.68-3.75-4.68a3.65,3.65,0,0,0-3.48,2.81,4.63,4.63,0,0,0-.13.94Zm13.8-.84c0,3.1,2,4.37,4.32,4.37a8.16,8.16,0,0,0,3.48-.65l.39,1.64a10,10,0,0,1-4.18.78c-3.88,0-6.19-2.55-6.19-6.34s2.23-6.79,5.9-6.79c4.11,0,5.2,3.62,5.2,5.93a7.64,7.64,0,0,1-.08,1.06Zm6.71-1.63c0-1.46-.6-3.72-3.17-3.72-2.32,0-3.33,2.13-3.51,3.72Z"/>
  <path id="a" class="cls-1" d="M270.26,105.13l-.18-1.58H270a4.71,4.71,0,0,1-3.85,1.87,3.59,3.59,0,0,1-3.85-3.62c0-3,2.71-4.7,7.57-4.68v-.26A2.59,2.59,0,0,0,267,94a6.23,6.23,0,0,0-3.28.94l-.52-1.51a7.79,7.79,0,0,1,4.14-1.12c3.84,0,4.78,2.63,4.78,5.15v4.71a17.26,17.26,0,0,0,.21,3Zm-.34-6.42c-2.5,0-5.33.39-5.33,2.83a2,2,0,0,0,2.16,2.19,3.12,3.12,0,0,0,3-2.11,2.29,2.29,0,0,0,.13-.73Z"/>
  <use id="peachPic1" transform="translate(292 70.13) scale(0.07)" xlink:href="#image"/>
  <path id="tree" class="cls-1" d="M380.7,91.34v6h5.42v2.88H380.7v11.22c0,2.58.73,4,2.84,4a8.52,8.52,0,0,0,2.19-.25l.17,2.83a9,9,0,0,1-3.35.52,5.25,5.25,0,0,1-4.09-1.59c-1.07-1.12-1.46-3-1.46-5.42V100.2h-3.23V97.32H377v-5Zm9.67,12.47c0-2.45,0-4.56-.17-6.49h3.31l.13,4.08h.17a6.25,6.25,0,0,1,5.76-4.55,4,4,0,0,1,1.08.13v3.56a6.09,6.09,0,0,0-1.29-.12c-2.67,0-4.56,2-5.07,4.85a10.27,10.27,0,0,0-.18,1.77v11.09h-3.74Zm15.74,4.6c.09,5.12,3.35,7.23,7.14,7.23a13.69,13.69,0,0,0,5.76-1.08l.64,2.71a16.87,16.87,0,0,1-6.92,1.29c-6.4,0-10.23-4.21-10.23-10.49s3.7-11.22,9.76-11.22c6.79,0,8.6,6,8.6,9.8a14.74,14.74,0,0,1-.13,1.76Zm11.09-2.71c.05-2.4-1-6.14-5.24-6.14-3.83,0-5.51,3.52-5.81,6.14Zm10.45,2.71c.09,5.12,3.36,7.23,7.14,7.23a13.69,13.69,0,0,0,5.76-1.08l.65,2.71a16.92,16.92,0,0,1-6.93,1.29c-6.4,0-10.23-4.21-10.23-10.49s3.7-11.22,9.76-11.22c6.8,0,8.6,6,8.6,9.8a12.87,12.87,0,0,1-.13,1.76Zm11.1-2.71c0-2.4-1-6.14-5.25-6.14-3.83,0-5.5,3.52-5.8,6.14Z"/>
  <path id="you2" class="cls-1" d="M180.37,191.4v-19l-14.12-25.71h6.56l6.3,12.32c1.72,3.38,3,6.1,4.44,9.21h.13c1.26-2.91,2.78-5.83,4.51-9.21l6.43-12.32h6.56l-15,25.64v19Zm49.7-16.3c0,11.86-8.22,17-16,17-8.68,0-15.38-6.36-15.38-16.5,0-10.74,7-17,15.91-17C223.84,158.6,230.07,165.29,230.07,175.1Zm-25.45.33c0,7,4,12.33,9.74,12.33s9.75-5.24,9.75-12.46c0-5.44-2.72-12.33-9.61-12.33S204.62,169.33,204.62,175.43Zm59.64,7.22c0,3.32.07,6.23.27,8.75h-5.17l-.33-5.23h-.13a12.09,12.09,0,0,1-10.61,6c-5,0-11.06-2.78-11.06-14V159.33h5.83v17.76c0,6.09,1.85,10.2,7.15,10.2a8.43,8.43,0,0,0,7.69-5.3,8.54,8.54,0,0,0,.53-3V159.33h5.83Z"/>
  <path id="may" class="cls-1" d="M288.9,177.22c0-1.3,0-2.36-.11-3.4h2l.1,2H291a4.34,4.34,0,0,1,3.95-2.31,3.71,3.71,0,0,1,3.56,2.52h.05a5.23,5.23,0,0,1,1.41-1.64,4.28,4.28,0,0,1,2.78-.88c1.66,0,4.13,1.09,4.13,5.46v7.41h-2.23v-7.12c0-2.42-.89-3.88-2.73-3.88a3,3,0,0,0-2.71,2.08,3.91,3.91,0,0,0-.18,1.15v7.77h-2.23v-7.54c0-2-.89-3.46-2.63-3.46a3.12,3.12,0,0,0-2.83,2.29,3.18,3.18,0,0,0-.19,1.12v7.59H288.9Zm28.65,9.18-.18-1.59h-.08a4.68,4.68,0,0,1-3.85,1.88,3.59,3.59,0,0,1-3.85-3.62c0-3,2.71-4.7,7.57-4.68v-.26a2.59,2.59,0,0,0-2.86-2.91,6.23,6.23,0,0,0-3.28.94l-.52-1.51a7.79,7.79,0,0,1,4.14-1.12c3.85,0,4.78,2.63,4.78,5.15v4.7a17.31,17.31,0,0,0,.21,3Zm-.34-6.42c-2.49,0-5.33.39-5.33,2.83A2,2,0,0,0,314,185a3.12,3.12,0,0,0,3-2.11,2.29,2.29,0,0,0,.13-.73Zm6.53-6.16,2.75,7.43c.29.83.6,1.82.81,2.58h.05c.24-.76.5-1.72.81-2.63l2.49-7.38h2.42l-3.43,9c-1.64,4.31-2.76,6.52-4.32,7.87a6.23,6.23,0,0,1-2.8,1.49l-.58-1.93a5.88,5.88,0,0,0,2-1.12,6.9,6.9,0,0,0,1.92-2.54,1.79,1.79,0,0,0,.18-.55,2.1,2.1,0,0,0-.15-.6l-4.66-11.59Z"/>
  <path id="wish" class="cls-1" d="M223.49,210.55l1.67,6.39c.36,1.41.7,2.71.93,4h.08c.29-1.28.7-2.63,1.12-4l2.05-6.42h1.93l1.95,6.29c.47,1.51.83,2.83,1.12,4.11h.07a37.05,37.05,0,0,1,1-4.08l1.79-6.32h2.26l-4.05,12.58H233.3l-1.93-6c-.44-1.41-.8-2.66-1.12-4.14h-.05a37,37,0,0,1-1.14,4.16l-2,6H225l-3.8-12.58ZM244.27,207a1.42,1.42,0,0,1-2.84,0,1.4,1.4,0,0,1,1.43-1.43A1.37,1.37,0,0,1,244.27,207Zm-2.55,16.12V210.55H244v12.58Zm5.77-2.34a6,6,0,0,0,3,.91c1.66,0,2.44-.83,2.44-1.87s-.65-1.69-2.34-2.31c-2.26-.81-3.33-2.06-3.33-3.57,0-2,1.64-3.69,4.35-3.69a6.34,6.34,0,0,1,3.09.78l-.57,1.67a4.86,4.86,0,0,0-2.58-.73c-1.35,0-2.1.78-2.1,1.71s.75,1.51,2.39,2.14c2.18.83,3.3,1.92,3.3,3.79,0,2.21-1.71,3.77-4.7,3.77a7.18,7.18,0,0,1-3.54-.86Zm10.61-16.12h2.29v7.85h.05a4.23,4.23,0,0,1,1.64-1.61,4.69,4.69,0,0,1,2.34-.65c1.69,0,4.39,1,4.39,5.38v7.49h-2.29V215.9c0-2-.75-3.74-2.91-3.74a3.29,3.29,0,0,0-3.07,2.29,2.77,2.77,0,0,0-.15,1.09v7.59H258.1Z"/>
  <path id="for" class="cls-1" d="M179.18,269.13V249.86H176v-3.09h3.14v-1.06c0-3.15.69-6,2.59-7.81a7.75,7.75,0,0,1,5.45-2.08,9.24,9.24,0,0,1,3.46.65l-.55,3.14a6,6,0,0,0-2.59-.51c-3.46,0-4.34,3.05-4.34,6.47v1.2h5.4v3.09h-5.4v19.27Zm32.71-11.36c0,8.27-5.73,11.87-11.14,11.87-6.05,0-10.71-4.44-10.71-11.51,0-7.48,4.89-11.87,11.08-11.87C207.55,246.26,211.89,250.93,211.89,257.77Zm-17.74.23c0,4.89,2.82,8.59,6.79,8.59s6.79-3.65,6.79-8.69c0-3.78-1.89-8.59-6.7-8.59S194.15,253.75,194.15,258ZM217,253.75c0-2.64,0-4.9-.18-7h3.56l.14,4.39h.18a6.71,6.71,0,0,1,6.19-4.9,4.55,4.55,0,0,1,1.16.14v3.83a6.32,6.32,0,0,0-1.39-.13c-2.86,0-4.9,2.17-5.45,5.22a11.6,11.6,0,0,0-.19,1.89v11.92h-4Z"/>
  <path id="an" class="cls-1" d="M275.26,262.13l-.18-1.58H275a4.71,4.71,0,0,1-3.85,1.87,3.59,3.59,0,0,1-3.85-3.62c0-3,2.71-4.7,7.57-4.68v-.26A2.59,2.59,0,0,0,272,251a6.23,6.23,0,0,0-3.28.94l-.52-1.51a7.79,7.79,0,0,1,4.14-1.12c3.84,0,4.78,2.63,4.78,5.15v4.71a17.26,17.26,0,0,0,.21,3Zm-.34-6.42c-2.5-.05-5.33.39-5.33,2.83a2,2,0,0,0,2.16,2.19,3.12,3.12,0,0,0,3-2.11,2.29,2.29,0,0,0,.13-.73Zm5.9-2.76c0-1.3,0-2.36-.1-3.4h2l.13,2.08h.05a4.62,4.62,0,0,1,4.16-2.37c1.74,0,4.44,1,4.44,5.36v7.51h-2.28v-7.25c0-2-.76-3.72-2.92-3.72a3.25,3.25,0,0,0-3.06,2.34,3.11,3.11,0,0,0-.16,1.06v7.57h-2.29Z"/>
  <image id="applePic" width="2544" height="2738" transform="translate(177.97 279.5) scale(0.02)" xlink:href="apple.png"/>
  <path id="or" class="cls-1" d="M267.17,316.74c0,4.65-3.23,6.68-6.27,6.68-3.41,0-6-2.5-6-6.48,0-4.21,2.75-6.68,6.24-6.68S267.17,312.89,267.17,316.74Zm-10,.13c0,2.75,1.59,4.83,3.82,4.83s3.83-2.05,3.83-4.89c0-2.13-1.07-4.83-3.77-4.83S257.18,314.47,257.18,316.87Zm12.87-2.4c0-1.48,0-2.75-.1-3.92h2L272,313h.1a3.78,3.78,0,0,1,3.49-2.76,2.57,2.57,0,0,1,.65.08v2.16a3.07,3.07,0,0,0-.78-.08,3.2,3.2,0,0,0-3.07,2.94,6.52,6.52,0,0,0-.11,1.06v6.71h-2.26Z"/>
  <image id="orangePic" width="600" height="470" transform="translate(249.97 312.43) scale(0.19)" xlink:href="orange.png"/>
  <path id="but2" class="cls-1" d="M14.59,324.11a51.2,51.2,0,0,1,9.6-.84c5.25,0,8.63.9,11.17,3a8.53,8.53,0,0,1,3.38,7.18c0,3.93-2.6,7.37-6.88,8.94v.12c3.86,1,8.39,4.16,8.39,10.2a11,11,0,0,1-3.44,8.15c-2.84,2.6-7.43,3.81-14.07,3.81a59.72,59.72,0,0,1-8.15-.49Zm5.25,16.67h4.77c5.56,0,8.82-2.9,8.82-6.83,0-4.76-3.63-6.64-8.94-6.64a21.81,21.81,0,0,0-4.65.37Zm0,19.5a28.32,28.32,0,0,0,4.41.24c5.43,0,10.44-2,10.44-7.91,0-5.55-4.76-7.85-10.5-7.85H19.84Zm51.75-4c0,3,.06,5.67.24,8H67.12l-.3-4.77H66.7A11,11,0,0,1,57,364.93c-4.58,0-10.08-2.54-10.08-12.8V335h5.31v16.18c0,5.56,1.7,9.3,6.53,9.3a7.67,7.67,0,0,0,7-4.83,7.79,7.79,0,0,0,.48-2.72V335h5.32ZM86.8,326.65V335h7.61v4H86.8v15.76c0,3.62,1,5.67,4,5.67a12,12,0,0,0,3.08-.36l.24,4a12.86,12.86,0,0,1-4.71.73,7.4,7.4,0,0,1-5.74-2.23c-1.51-1.57-2-4.17-2-7.61V339.09H77.08v-4h4.53v-7Z"/>
  <path id="you3" class="cls-1" d="M69.22,389.61,54.58,395c-1.64.56-3.58,1.17-5.07,1.58v.11c1.49.46,3.38,1,5.17,1.58l14.54,4.92V408l-17.66-6.76c-8.49-3.22-12.84-5.42-15.51-8.5a12.18,12.18,0,0,1-2.91-5.52l3.78-1.13A11.87,11.87,0,0,0,39.13,390a13.58,13.58,0,0,0,5,3.79,3.35,3.35,0,0,0,1.08.36,3.79,3.79,0,0,0,1.17-.31l22.83-9.16ZM57,434c-9.16,0-13.16-6.34-13.16-12.33,0-6.7,4.92-11.87,12.75-11.87,8.29,0,13.15,5.42,13.15,12.28C69.78,429.17,64.61,434,57,434Zm-.26-19.65c-5.42,0-9.52,3.12-9.52,7.52s4.05,7.53,9.62,7.53c4.2,0,9.52-2.1,9.52-7.42S61.49,414.33,56.78,414.33ZM51.2,460.39c-2.56,0-4.81.05-6.75.21v-4l4-.25v-.1a9.34,9.34,0,0,1-4.61-8.19c0-3.89,2.15-8.55,10.85-8.55H69.22V444H55.5c-4.71,0-7.88,1.44-7.88,5.53a6.52,6.52,0,0,0,4.09,5.94,6.78,6.78,0,0,0,2.31.41h15.2v4.5Z"/>
  <path id="will1" class="cls-1" d="M82.79,383.69l1.66,6.4c.37,1.4.71,2.7.94,4h.08c.28-1.27.7-2.62,1.12-4l2-6.43h1.92l2,6.29c.47,1.51.84,2.84,1.12,4.11h.08a39.9,39.9,0,0,1,1-4.08l1.8-6.32h2.26l-4.06,12.59H92.59l-1.92-6a41.72,41.72,0,0,1-1.12-4.13h0a36.07,36.07,0,0,1-1.15,4.16l-2,6H84.25l-3.8-12.59Zm20.77-3.53a1.34,1.34,0,0,1-1.45,1.4,1.36,1.36,0,0,1-1.38-1.4,1.39,1.39,0,0,1,1.43-1.43A1.35,1.35,0,0,1,103.56,380.16ZM101,396.28V383.69h2.29v12.59Zm6.09-18.46h2.29v18.46H107.1Zm5.55,0h2.29v18.46h-2.29Z"/>
  <path id="get" class="cls-1" d="M134.92,383.69c-.06.91-.11,1.93-.11,3.46v7.31c0,2.88-.57,4.65-1.79,5.74a6.64,6.64,0,0,1-4.58,1.51,8,8,0,0,1-4.18-1l.57-1.74a7.08,7.08,0,0,0,3.69,1c2.34,0,4.06-1.22,4.06-4.4v-1.4h-.06a4.49,4.49,0,0,1-4,2.11c-3.12,0-5.36-2.66-5.36-6.14,0-4.26,2.79-6.68,5.67-6.68a4.19,4.19,0,0,1,3.93,2.18h.05l.1-1.9Zm-2.37,5a3.37,3.37,0,0,0-.13-1,3.29,3.29,0,0,0-3.2-2.42c-2.18,0-3.74,1.85-3.74,4.76,0,2.47,1.25,4.52,3.72,4.52a3.35,3.35,0,0,0,3.17-2.34,4,4,0,0,0,.18-1.22Zm7.33,1.74c.05,3.1,2,4.37,4.32,4.37a8.32,8.32,0,0,0,3.48-.65l.39,1.64a10.21,10.21,0,0,1-4.18.78c-3.88,0-6.19-2.55-6.19-6.35s2.23-6.78,5.9-6.78c4.11,0,5.2,3.61,5.2,5.92a7.82,7.82,0,0,1-.08,1.07Zm6.71-1.64c0-1.45-.6-3.72-3.17-3.72-2.32,0-3.33,2.14-3.51,3.72Zm7.8-8.68v3.61h3.28v1.75h-3.28v6.78c0,1.56.44,2.45,1.72,2.45a4.93,4.93,0,0,0,1.32-.16l.11,1.72a5.71,5.71,0,0,1-2,.31,3.17,3.17,0,0,1-2.47-1,4.68,4.68,0,0,1-.89-3.28v-6.86h-2v-1.75h2v-3Z"/>
  <path id="a2" class="cls-1" d="M94,441.65l-3.42,11.63H86.2l11.21-37h5.13l11.25,37h-4.54l-3.53-11.63Zm10.81-3.73-3.23-10.64c-.73-2.42-1.22-4.61-1.71-6.75h-.1c-.49,2.19-1,4.44-1.66,6.69l-3.23,10.7Z"/>
  <use id="peachPic2" transform="translate(130.39 396.28) scale(0.07)" xlink:href="#image"/>
  <path id="peach" class="cls-1" d="M212.22,415.43a31.76,31.76,0,0,1,5.14-.4c2.65,0,4.58.62,5.82,1.72a5.62,5.62,0,0,1,1.81,4.34,6.09,6.09,0,0,1-1.6,4.43,8.57,8.57,0,0,1-6.34,2.28,8.87,8.87,0,0,1-2.15-.19v8.31h-2.68Zm2.68,10a9.17,9.17,0,0,0,2.22.21c3.23,0,5.19-1.56,5.19-4.43s-1.93-4.06-4.89-4.06a11.3,11.3,0,0,0-2.52.22Zm24.43.77h-8.06v7.47h9v2.25H228.59V415.18h11.2v2.25h-8.52V424h8.06Zm7.75,3.2-2.15,6.52h-2.77l7.05-20.74h3.23l7.07,20.74h-2.86l-2.21-6.52Zm6.8-2.1-2-6c-.46-1.36-.77-2.59-1.07-3.79h-.07c-.3,1.23-.64,2.49-1,3.76l-2,6Zm22.71,7.94a13.32,13.32,0,0,1-5.48,1c-5.84,0-10.24-3.7-10.24-10.49,0-6.49,4.4-10.89,10.83-10.89a11.13,11.13,0,0,1,4.92.92L276,418a9.76,9.76,0,0,0-4.18-.86c-4.86,0-8.09,3.11-8.09,8.55,0,5.08,2.92,8.34,8,8.34a10.7,10.7,0,0,0,4.36-.86Zm6-20.06v8.68h10v-8.68h2.71v20.74h-2.71V426.2h-10v9.72h-2.68V415.18Z"/>
  <path id="cannot" class="cls-1" d="M261.46,462.45a8.44,8.44,0,0,1-3.61.73c-3.8,0-6.27-2.58-6.27-6.42a6.4,6.4,0,0,1,6.76-6.69,7.66,7.66,0,0,1,3.17.65l-.52,1.77a5.29,5.29,0,0,0-2.65-.6c-2.89,0-4.45,2.14-4.45,4.76,0,2.91,1.88,4.71,4.37,4.71a6.44,6.44,0,0,0,2.81-.63Zm9.65.47-.18-1.59h-.08A4.69,4.69,0,0,1,267,463.2a3.58,3.58,0,0,1-3.85-3.61c0-3,2.7-4.71,7.57-4.68v-.26a2.59,2.59,0,0,0-2.86-2.91,6.31,6.31,0,0,0-3.28.93l-.52-1.5a7.78,7.78,0,0,1,4.13-1.12c3.85,0,4.79,2.62,4.79,5.15v4.7a17.38,17.38,0,0,0,.21,3Zm-.34-6.42c-2.5-.06-5.33.38-5.33,2.83a2,2,0,0,0,2.16,2.18,3.14,3.14,0,0,0,3-2.1,2.39,2.39,0,0,0,.13-.73Zm5.9-2.76c0-1.3,0-2.37-.1-3.41h2l.13,2.08h.06a4.63,4.63,0,0,1,4.16-2.36c1.74,0,4.44,1,4.44,5.35v7.52h-2.29v-7.26c0-2-.75-3.71-2.91-3.71a3.24,3.24,0,0,0-3.07,2.34,3.35,3.35,0,0,0-.15,1.06v7.57h-2.29Zm14.43,0c0-1.3,0-2.37-.1-3.41h2l.13,2.08h.06a4.63,4.63,0,0,1,4.16-2.36c1.74,0,4.44,1,4.44,5.35v7.52h-2.29v-7.26c0-2-.75-3.71-2.91-3.71a3.24,3.24,0,0,0-3.07,2.34,3.35,3.35,0,0,0-.15,1.06v7.57H291.1Zm25.82,2.78c0,4.66-3.23,6.68-6.27,6.68-3.4,0-6-2.49-6-6.47,0-4.21,2.76-6.68,6.24-6.68S316.92,452.67,316.92,456.52Zm-10,.13c0,2.76,1.59,4.84,3.83,4.84s3.82-2.06,3.82-4.89c0-2.13-1.07-4.84-3.77-4.84S306.93,454.26,306.93,456.65Zm15.63-9.93v3.61h3.28v1.75h-3.28v6.78c0,1.56.44,2.44,1.72,2.44a5,5,0,0,0,1.32-.15l.11,1.72a5.71,5.71,0,0,1-2,.31,3.14,3.14,0,0,1-2.47-1,4.64,4.64,0,0,1-.89-3.27v-6.86h-1.95v-1.75h1.95v-3Z"/>
  <path id="defeat" class="cls-1" d="M322.12,466.67v15.21c0,1.12,0,2.39.11,3.25h-2.06l-.1-2.18H320a4.68,4.68,0,0,1-4.29,2.47c-3.05,0-5.39-2.58-5.39-6.4,0-4.19,2.58-6.76,5.65-6.76a4.19,4.19,0,0,1,3.79,1.93h.05v-7.52Zm-2.29,11a3.87,3.87,0,0,0-.1-1,3.37,3.37,0,0,0-3.3-2.66c-2.37,0-3.77,2.08-3.77,4.87,0,2.54,1.25,4.65,3.72,4.65a3.44,3.44,0,0,0,3.35-2.73,3.86,3.86,0,0,0,.1-1Zm7.36,1.59c.06,3.09,2,4.36,4.32,4.36A8.16,8.16,0,0,0,335,483l.39,1.64a10.21,10.21,0,0,1-4.18.78c-3.88,0-6.19-2.55-6.19-6.34s2.24-6.79,5.9-6.79c4.11,0,5.2,3.62,5.2,5.93a8,8,0,0,1-.08,1.07Zm6.71-1.64c0-1.46-.6-3.72-3.17-3.72-2.31,0-3.33,2.13-3.51,3.72Zm5.28,7.51V474.29h-1.77v-1.74h1.77V472a6,6,0,0,1,1.45-4.4,4.41,4.41,0,0,1,3.07-1.17,5.31,5.31,0,0,1,1.95.37l-.31,1.77a3.38,3.38,0,0,0-1.46-.29c-1.95,0-2.44,1.72-2.44,3.64v.68h3v1.74h-3v10.84Zm8.29-5.87c0,3.09,2,4.36,4.32,4.36a8.16,8.16,0,0,0,3.48-.65l.39,1.64a10.21,10.21,0,0,1-4.18.78c-3.88,0-6.19-2.55-6.19-6.34s2.23-6.79,5.9-6.79c4.11,0,5.2,3.62,5.2,5.93a8,8,0,0,1-.08,1.07Zm6.71-1.64c0-1.46-.6-3.72-3.17-3.72-2.32,0-3.33,2.13-3.51,3.72Zm12,7.51-.18-1.59h-.08a4.68,4.68,0,0,1-3.85,1.88,3.59,3.59,0,0,1-3.84-3.62c0-3,2.7-4.7,7.56-4.68v-.26a2.59,2.59,0,0,0-2.86-2.91,6.17,6.17,0,0,0-3.27.94l-.52-1.51a7.75,7.75,0,0,1,4.13-1.12c3.85,0,4.78,2.63,4.78,5.15v4.71a18.3,18.3,0,0,0,.21,3Zm-.34-6.42c-2.49,0-5.33.39-5.33,2.83a2,2,0,0,0,2.16,2.19,3.12,3.12,0,0,0,3-2.11,2.29,2.29,0,0,0,.13-.73Zm8.56-9.78v3.62h3.27v1.74h-3.27v6.79c0,1.55.44,2.44,1.71,2.44a5,5,0,0,0,1.33-.16l.1,1.72a5.61,5.61,0,0,1-2,.31,3.17,3.17,0,0,1-2.47-1,4.68,4.68,0,0,1-.89-3.28v-6.86h-1.95v-1.74h1.95v-3Z"/>
  <path id="tai" class="cls-1" d="M360.31,394.54H342.42v-6.46H386v6.46H368v52.38h-7.69Zm49.76,52.38-.61-5.33h-.26a15.74,15.74,0,0,1-12.92,6.29c-8.56,0-12.92-6-12.92-12.14,0-10.21,9.08-15.8,25.4-15.71v-.87c0-3.49-1-9.78-9.6-9.78a21.06,21.06,0,0,0-11,3.14l-1.75-5.06a26.25,26.25,0,0,1,13.88-3.75c12.92,0,16.07,8.81,16.07,17.28v15.8a60,60,0,0,0,.69,10.13Zm-1.13-21.56c-8.38-.18-17.9,1.3-17.9,9.51,0,5,3.32,7.33,7.25,7.33a10.5,10.5,0,0,0,10.21-7.07,8.05,8.05,0,0,0,.44-2.44Zm28.36-32.57a4.76,4.76,0,0,1-9.51,0,4.68,4.68,0,0,1,4.8-4.8A4.56,4.56,0,0,1,437.3,392.79Zm-8.55,54.13V404.67h7.68v42.25Z"/>
  <path id="lung" class="cls-1" d="M405.74,456.52h4.7V489H426v3.94H405.74Zm28.24,0v21.55c0,8.15,3.62,11.61,8.48,11.61,5.4,0,8.86-3.57,8.86-11.61V456.52h4.75v21.22c0,11.18-5.89,15.77-13.77,15.77-7.45,0-13.07-4.26-13.07-15.55V456.52Zm30.24,36.4v-36.4h5.13L481,474.93a104.14,104.14,0,0,1,6.53,11.83l.11-.05c-.43-4.86-.54-9.29-.54-15V456.52h4.43v36.4H486.8l-11.56-18.47a114.24,114.24,0,0,1-6.8-12.15l-.17.05c.27,4.59.38,9,.38,15v15.55Zm63.24-1.62a34.17,34.17,0,0,1-11.18,2c-5.51,0-10-1.4-13.61-4.8-3.13-3-5.08-7.88-5.08-13.56.06-10.85,7.51-18.79,19.71-18.79a22.44,22.44,0,0,1,9.08,1.68l-1.14,3.83a18.88,18.88,0,0,0-8-1.57c-8.86,0-14.64,5.51-14.64,14.64s5.57,14.69,14,14.69a15.36,15.36,0,0,0,6.27-1V477.58h-7.4V473.8h12Zm6.1-1.14a3.16,3.16,0,0,1,3.18-3.34,3.1,3.1,0,0,1,3.19,3.34,3.19,3.19,0,1,1-6.37,0Zm1.35-7.72-.76-25.92h5.19l-.76,25.92Z"/>
  <path id="maybe" class="cls-1" d="M474.41,310.67c5.57-.3,12.26-.65,17.24-.59v-.18c-4.68-1.36-9.66-3-15.17-5l-19.38-7.05V293.9l19-6.46c5.63-1.9,10.79-3.5,15.53-4.63v-.11c-5-.12-11.67-.42-17.66-.78l-17.13-1.06v-4.92l39.95,2.78v6.58l-19.32,6.82c-4.92,1.66-9.31,3-13.46,4v.18c4,1,8.42,2.43,13.46,4.2l19.32,7.12v6.57l-39.95,2.49v-5Zm-17.55,30,3.62-.41v-.18a10.69,10.69,0,0,1-4.27-8.77c0-5.81,4.09-8.77,8.24-8.77,6.93,0,10.73,6.16,10.67,17.24h.59c2.37,0,6.64-.65,6.64-6.52a14.22,14.22,0,0,0-2.14-7.46l3.44-1.19a17.82,17.82,0,0,1,2.55,9.43c0,8.77-6,10.9-11.74,10.9H463.74a41.09,41.09,0,0,0-6.88.47Zm14.64-.77c.12-5.69-.89-12.15-6.46-12.15a4.62,4.62,0,0,0-5,4.92,7.14,7.14,0,0,0,4.8,6.94,5.74,5.74,0,0,0,1.66.29Zm14.05,14.88L468.6,361.1c-1.9.65-4.15,1.36-5.87,1.84v.12c1.72.53,3.91,1.12,6,1.83l16.83,5.69v5.51l-20.45-7.82c-9.84-3.73-14.87-6.28-18-9.84a14,14,0,0,1-3.37-6.4l4.38-1.3a14,14,0,0,0,2.55,4.56,15.91,15.91,0,0,0,5.81,4.39,3.89,3.89,0,0,0,1.24.41,4.78,4.78,0,0,0,1.37-.35l26.43-10.61ZM456.86,380.6c2,.12,4.86.23,7.41.23h34.67V386h-18v.12c3.21,1.84,5.28,5.15,5.28,9.78,0,7.11-5.93,12.15-14.64,12.09-10.25,0-15.35-6.46-15.35-12.86,0-4.15,1.6-7.47,5.39-9.6v-.18l-4.74-.24Zm11.5,5.39a9.78,9.78,0,0,0-1.9.24,8,8,0,0,0-6.1,7.82c0,5.45,4.44,8.71,11,8.71,5.75,0,10.67-3,10.67-8.53a8.3,8.3,0,0,0-6.4-7.94,10.1,10.1,0,0,0-2.13-.3Zm1.9,31.47c-7.05.12-10,4.62-10,9.84a18.88,18.88,0,0,0,1.48,7.94l-3.73.89a23.25,23.25,0,0,1-1.78-9.55c0-8.83,5.81-14.1,14.46-14.1s15.47,5.1,15.47,13.45c0,9.37-8.24,11.86-13.51,11.86a19.33,19.33,0,0,1-2.43-.18ZM474,432.75c3.32.06,8.48-1.36,8.48-7.23,0-5.28-4.86-7.59-8.48-8Z"/>
  <path id="it1" class="cls-1" d="M509,280a1.34,1.34,0,0,1-1.45,1.4,1.36,1.36,0,0,1-1.38-1.4,1.39,1.39,0,0,1,1.43-1.43A1.35,1.35,0,0,1,509,280Zm-2.54,16.12V283.55h2.28v12.58Zm8.84-16.2v3.62h3.27v1.74H515.3v6.79c0,1.55.44,2.44,1.71,2.44a5,5,0,0,0,1.33-.16l.1,1.72a5.63,5.63,0,0,1-2,.31,3.2,3.2,0,0,1-2.47-1,4.68,4.68,0,0,1-.88-3.28v-6.86h-1.95v-1.74h1.95v-3Z"/>
  <path id="can" class="cls-1" d="M515.43,322.66a8.34,8.34,0,0,1-3.62.73c-3.79,0-6.27-2.57-6.27-6.42a6.4,6.4,0,0,1,6.77-6.68,7.7,7.7,0,0,1,3.17.65l-.52,1.77a5.24,5.24,0,0,0-2.65-.6c-2.89,0-4.45,2.13-4.45,4.76,0,2.91,1.87,4.7,4.37,4.7A6.61,6.61,0,0,0,515,321Zm9.64.47-.18-1.58h-.08a4.7,4.7,0,0,1-3.85,1.87,3.59,3.59,0,0,1-3.84-3.62c0-3,2.7-4.7,7.56-4.68v-.26a2.59,2.59,0,0,0-2.86-2.91,6.23,6.23,0,0,0-3.28.94l-.51-1.51a7.75,7.75,0,0,1,4.13-1.12c3.85,0,4.78,2.63,4.78,5.15v4.71a18.3,18.3,0,0,0,.21,3Zm-.34-6.42c-2.49,0-5.33.39-5.33,2.83a2,2,0,0,0,2.16,2.19,3.12,3.12,0,0,0,3-2.11,2.29,2.29,0,0,0,.13-.73Zm5.9-2.76c0-1.3,0-2.36-.1-3.4h2l.13,2.08h0a4.63,4.63,0,0,1,4.16-2.37c1.74,0,4.45,1,4.45,5.36v7.51h-2.29v-7.25c0-2-.75-3.72-2.91-3.72a3.26,3.26,0,0,0-3.07,2.34,3.42,3.42,0,0,0-.16,1.06v7.57h-2.29Z"/>
  <path id="if" class="cls-1" d="M526.43,335.92v35.39h-4.57V335.92Zm8.82,35.39V349.42h-3.57V345.9h3.57v-1.21c0-3.57.79-6.83,2.94-8.87a8.84,8.84,0,0,1,6.19-2.37,10.64,10.64,0,0,1,3.94.74l-.63,3.57a6.82,6.82,0,0,0-2.94-.58c-3.94,0-4.93,3.47-4.93,7.35v1.37H546v3.52h-6.14v21.89Z"/>
  <path id="you4" class="cls-1" d="M562.1,350.73l2.75,7.43c.29.83.6,1.82.81,2.58h.05c.23-.76.49-1.72.81-2.63l2.49-7.38h2.42l-3.43,9c-1.64,4.31-2.76,6.52-4.32,7.87a6.25,6.25,0,0,1-2.81,1.49l-.57-1.93a5.84,5.84,0,0,0,2-1.12,6.81,6.81,0,0,0,1.93-2.54,1.79,1.79,0,0,0,.18-.55,1.89,1.89,0,0,0-.16-.6l-4.65-11.59Zm22.54,6.18c0,4.66-3.23,6.69-6.27,6.69-3.4,0-6-2.5-6-6.48,0-4.21,2.76-6.68,6.24-6.68S584.64,353.07,584.64,356.91Zm-10,.13c0,2.76,1.59,4.84,3.83,4.84s3.82-2.05,3.82-4.89c0-2.13-1.07-4.83-3.77-4.83S574.65,354.65,574.65,357Zm23.4,2.84c0,1.3,0,2.44.11,3.43h-2l-.13-2.05h0a4.75,4.75,0,0,1-4.16,2.34c-2,0-4.34-1.1-4.34-5.52v-7.35h2.28v7c0,2.4.73,4,2.81,4a3.32,3.32,0,0,0,3-2.08,3.38,3.38,0,0,0,.21-1.17v-7.72h2.28Z"/>
  <path id="are" class="cls-1" d="M621.36,363.31l-.19-1.65h-.08a4.87,4.87,0,0,1-4,1.95,3.72,3.72,0,0,1-4-3.75c0-3.16,2.8-4.89,7.85-4.86v-.27a2.7,2.7,0,0,0-3-3,6.56,6.56,0,0,0-3.4,1l-.54-1.56a8.14,8.14,0,0,1,4.29-1.16c4,0,5,2.72,5,5.34v4.89a17.59,17.59,0,0,0,.22,3.13Zm-.36-6.67c-2.59-.05-5.53.41-5.53,2.95a2.1,2.1,0,0,0,2.24,2.26,3.26,3.26,0,0,0,3.16-2.18,2.58,2.58,0,0,0,.13-.76Zm6.14-2.32c0-1.54,0-2.86-.11-4.07h2.08l.08,2.56h.1a3.94,3.94,0,0,1,3.62-2.86,2.82,2.82,0,0,1,.68.08v2.24a3.9,3.9,0,0,0-.81-.08,3.34,3.34,0,0,0-3.19,3.05,7.06,7.06,0,0,0-.11,1.11v7h-2.34Zm9.88,2.89c.05,3.21,2.1,4.54,4.48,4.54a8.59,8.59,0,0,0,3.62-.68l.4,1.7a10.58,10.58,0,0,1-4.35.81c-4,0-6.42-2.64-6.42-6.59s2.32-7,6.13-7c4.26,0,5.4,3.75,5.4,6.15a10.59,10.59,0,0,1-.08,1.11Zm7-1.7c0-1.51-.62-3.86-3.29-3.86-2.4,0-3.46,2.21-3.65,3.86Z"/>
  <path id="willing" class="cls-1" d="M665.25,344.62l2.86,11c.62,2.41,1.2,4.64,1.6,6.87h.13c.49-2.19,1.21-4.51,1.92-6.82l3.52-11h3.3l3.34,10.78c.81,2.59,1.43,4.86,1.92,7.05H684a66.14,66.14,0,0,1,1.65-7l3.08-10.83h3.88l-7,21.57h-3.56l-3.3-10.3a72.09,72.09,0,0,1-1.92-7.08h-.09a62.73,62.73,0,0,1-2,7.13l-3.47,10.25h-3.57l-6.51-21.57Zm35.61-6.06a2.43,2.43,0,0,1-4.85,0,2.39,2.39,0,0,1,2.45-2.46A2.33,2.33,0,0,1,700.86,338.56Zm-4.36,27.63V344.62h3.92v21.57Zm10.42-31.65h3.93v31.65h-3.93Zm10.52,0h3.92v31.65h-3.92Zm14.89,4a2.43,2.43,0,0,1-4.86,0,2.39,2.39,0,0,1,2.45-2.46A2.33,2.33,0,0,1,732.33,338.56ZM728,366.19V344.62h3.92v21.57Zm10.43-15.73c0-2.23,0-4.06-.18-5.84h3.48l.22,3.56H742a7.92,7.92,0,0,1,7.13-4.05c3,0,7.62,1.78,7.62,9.18v12.88h-3.92V353.75c0-3.47-1.29-6.37-5-6.37a5.76,5.76,0,0,0-5.53,5.84v13h-3.92Zm43.32-5.84c-.09,1.56-.18,3.3-.18,5.93v12.52c0,4.95-1,8-3.07,9.85s-5.13,2.59-7.85,2.59a13.88,13.88,0,0,1-7.17-1.79l1-3a12.15,12.15,0,0,0,6.33,1.69c4,0,7-2.09,7-7.53v-2.41h-.09a7.68,7.68,0,0,1-6.86,3.61c-5.35,0-9.19-4.55-9.19-10.52,0-7.31,4.77-11.45,9.72-11.45a7.19,7.19,0,0,1,6.73,3.74h.09l.18-3.25Zm-4.06,8.51a5.5,5.5,0,0,0-.22-1.78A5.64,5.64,0,0,0,772,347.2c-3.74,0-6.42,3.17-6.42,8.16,0,4.23,2.14,7.76,6.37,7.76a5.73,5.73,0,0,0,5.44-4,6.88,6.88,0,0,0,.31-2.09Z"/>
  <path id="to" class="cls-1" d="M552.23,389.93v11.15h10.11v5.38H552.23V427.4c0,4.81,1.37,7.54,5.3,7.54a15.75,15.75,0,0,0,4.09-.48l.32,5.3a17.32,17.32,0,0,1-6.26,1c-3.29,0-5.93-1-7.62-3-2-2.08-2.73-5.54-2.73-10.11V406.46h-6v-5.38h6v-9.3Zm52.71,30.25c0,14.36-10,20.62-19.33,20.62-10.51,0-18.62-7.7-18.62-20,0-13,8.51-20.62,19.26-20.62C597.4,400.2,604.94,408.31,604.94,420.18Zm-30.81.4c0,8.51,4.9,14.92,11.8,14.92,6.74,0,11.79-6.33,11.79-15.08,0-6.58-3.29-14.92-11.63-14.92S574.13,413.2,574.13,420.58Z"/>
  <path id="guide" class="cls-1" d="M635,396.08c-.06,1.08-.12,2.27-.12,4.08v8.6c0,3.4-.67,5.48-2.11,6.77a7.85,7.85,0,0,1-5.39,1.78,9.51,9.51,0,0,1-4.93-1.23l.67-2.05a8.38,8.38,0,0,0,4.35,1.16c2.76,0,4.78-1.44,4.78-5.17v-1.66h-.06a5.29,5.29,0,0,1-4.72,2.48c-3.67,0-6.31-3.12-6.31-7.22,0-5,3.28-7.87,6.68-7.87a4.91,4.91,0,0,1,4.62,2.57h.06l.13-2.24Zm-2.78,5.85a3.93,3.93,0,0,0-3.92-4.07c-2.57,0-4.41,2.17-4.41,5.6,0,2.91,1.47,5.33,4.38,5.33A3.93,3.93,0,0,0,632,406a4.5,4.5,0,0,0,.22-1.44Zm19.54,4.93c0,1.53,0,2.88.12,4.05h-2.39l-.15-2.42h-.06a5.59,5.59,0,0,1-4.9,2.75c-2.33,0-5.12-1.28-5.12-6.49v-8.67H642v8.21c0,2.82.86,4.72,3.31,4.72a3.91,3.91,0,0,0,3.55-2.45,4,4,0,0,0,.24-1.38v-9.1h2.7Zm7.47-14.94a1.67,1.67,0,0,1-3.33,0,1.64,1.64,0,0,1,1.68-1.69A1.6,1.6,0,0,1,659.23,391.92Zm-3,19V396.08h2.7v14.83Zm20-21.75v17.92c0,1.31,0,2.81.12,3.83H673.9l-.12-2.58h-.06a5.47,5.47,0,0,1-5.05,2.91c-3.59,0-6.34-3-6.34-7.53,0-4.93,3-8,6.64-8a5,5,0,0,1,4.47,2.26h.07v-8.85Zm-2.69,13a4.92,4.92,0,0,0-.13-1.14,4,4,0,0,0-3.89-3.12c-2.78,0-4.44,2.45-4.44,5.73,0,3,1.47,5.48,4.38,5.48a4.05,4.05,0,0,0,4-3.22,4.74,4.74,0,0,0,.13-1.16Zm8.66,1.86c.07,3.65,2.39,5.15,5.09,5.15a9.69,9.69,0,0,0,4.1-.77l.46,1.93a12,12,0,0,1-4.93.92c-4.56,0-7.29-3-7.29-7.47s2.64-8,6.95-8c4.84,0,6.13,4.25,6.13,7a10.19,10.19,0,0,1-.09,1.25Zm7.91-1.93c0-1.71-.71-4.37-3.74-4.37-2.73,0-3.92,2.51-4.13,4.37Z"/>
  <path id="it2" class="cls-1" d="M715.89,394.79a1.42,1.42,0,0,1-2.84,0,1.4,1.4,0,0,1,1.43-1.44A1.37,1.37,0,0,1,715.89,394.79Zm-2.55,16.12V398.32h2.29v12.59Zm8.84-16.2v3.61h3.27v1.74h-3.27v6.79c0,1.56.44,2.44,1.71,2.44a5.1,5.1,0,0,0,1.33-.15l.1,1.71a5.37,5.37,0,0,1-2,.32,3.14,3.14,0,0,1-2.47-1,4.64,4.64,0,0,1-.89-3.27v-6.87h-2v-1.74h2v-3Z"/>
  <path id="nurture" class="cls-1" d="M613.24,437.74c0-1.3,0-2.37-.1-3.41h2l.12,2.08h.06a4.63,4.63,0,0,1,4.16-2.36c1.74,0,4.44,1,4.44,5.35v7.52h-2.28v-7.26c0-2-.76-3.71-2.92-3.71a3.25,3.25,0,0,0-3.07,2.34,3.35,3.35,0,0,0-.15,1.06v7.57h-2.29Zm25,5.75c0,1.3,0,2.44.1,3.43h-2l-.13-2.06h-.06a4.71,4.71,0,0,1-4.16,2.34c-2,0-4.34-1.09-4.34-5.51v-7.36h2.29v7c0,2.39.73,4,2.81,4a3.3,3.3,0,0,0,3-2.08,3.38,3.38,0,0,0,.21-1.17v-7.73h2.29Zm3.8-5.23c0-1.48,0-2.76-.11-3.93h2l.08,2.47h.11a3.77,3.77,0,0,1,3.48-2.75,2.18,2.18,0,0,1,.65.08v2.15a3.58,3.58,0,0,0-.78-.07,3.21,3.21,0,0,0-3.07,2.93,6.83,6.83,0,0,0-.1,1.07v6.71H642Zm11.88-7.54v3.61h3.27v1.75h-3.27v6.78c0,1.56.44,2.45,1.71,2.45a5,5,0,0,0,1.33-.16l.1,1.72a5.61,5.61,0,0,1-2,.31,3.17,3.17,0,0,1-2.47-1,4.68,4.68,0,0,1-.89-3.28v-6.86h-1.95v-1.75h1.95v-3Zm16.38,12.77c0,1.3,0,2.44.1,3.43h-2l-.13-2.06h-.05A4.72,4.72,0,0,1,664,447.2c-2,0-4.34-1.09-4.34-5.51v-7.36h2.29v7c0,2.39.73,4,2.81,4a3.3,3.3,0,0,0,3-2.08,3.38,3.38,0,0,0,.21-1.17v-7.73h2.29Zm3.79-5.23c0-1.48,0-2.76-.1-3.93h2l.08,2.47h.1a3.78,3.78,0,0,1,3.49-2.75,2.18,2.18,0,0,1,.65.08v2.15a3.64,3.64,0,0,0-.78-.07,3.21,3.21,0,0,0-3.07,2.93,6.83,6.83,0,0,0-.1,1.07v6.71h-2.27Zm9.52,2.78c0,3.1,2,4.37,4.32,4.37a8.35,8.35,0,0,0,3.48-.65l.39,1.64a10.27,10.27,0,0,1-4.19.78c-3.87,0-6.18-2.55-6.18-6.35s2.23-6.78,5.9-6.78c4.11,0,5.2,3.61,5.2,5.93a7.78,7.78,0,0,1-.08,1.06Zm6.71-1.64c0-1.45-.6-3.71-3.17-3.71-2.32,0-3.33,2.13-3.51,3.71Z"/>
  <path id="it3" class="cls-1" d="M716.86,430.8a1.34,1.34,0,0,1-1.45,1.4,1.36,1.36,0,0,1-1.38-1.4,1.39,1.39,0,0,1,1.43-1.43A1.35,1.35,0,0,1,716.86,430.8Zm-2.55,16.12V434.33h2.29v12.59Zm8.85-16.2v3.61h3.27v1.75h-3.27v6.78c0,1.56.44,2.45,1.71,2.45a5,5,0,0,0,1.33-.16l.1,1.72a5.63,5.63,0,0,1-2,.31,3.2,3.2,0,0,1-2.47-1,4.68,4.68,0,0,1-.88-3.28v-6.86H719v-1.75h1.95v-3Z"/>
  <path id="believe" class="cls-1" d="M586.6,490.89c.08-1.24.15-3.09.15-4.71V464.12H590v11.46h.08a6.8,6.8,0,0,1,6.22-3.35c4.52,0,7.73,3.77,7.69,9.31,0,6.52-4.11,9.77-8.18,9.77a6.51,6.51,0,0,1-6.11-3.43h-.11l-.15,3Zm3.43-7.31a6.56,6.56,0,0,0,.15,1.2,5.13,5.13,0,0,0,5,3.89c3.47,0,5.54-2.83,5.54-7,0-3.65-1.88-6.78-5.43-6.78a5.28,5.28,0,0,0-5,4.07,6.27,6.27,0,0,0-.19,1.36Zm20-1.21c.08,4.49,2.94,6.34,6.26,6.34a11.94,11.94,0,0,0,5.05-.95l.57,2.38a14.76,14.76,0,0,1-6.07,1.13c-5.62,0-9-3.7-9-9.2s3.25-9.84,8.56-9.84c6,0,7.54,5.24,7.54,8.59a12.26,12.26,0,0,1-.11,1.55Zm9.73-2.37c0-2.12-.87-5.4-4.6-5.4-3.36,0-4.83,3.1-5.09,5.4Zm7.31-15.88h3.32v26.77h-3.32Zm12.59,3.39a2.06,2.06,0,0,1-4.11,0,2,2,0,0,1,2.08-2.07A2,2,0,0,1,639.68,467.51ZM636,490.89V472.64h3.32v18.25Zm10.67-8.52c.07,4.49,2.94,6.34,6.26,6.34a12,12,0,0,0,5.05-.95l.56,2.38a14.73,14.73,0,0,1-6.07,1.13c-5.62,0-9-3.7-9-9.2s3.24-9.84,8.56-9.84c6,0,7.54,5.24,7.54,8.59a14.52,14.52,0,0,1-.11,1.55Zm9.72-2.37c0-2.12-.86-5.4-4.6-5.4-3.35,0-4.82,3.1-5.09,5.4Zm8.6-7.36,3.58,10.26a44.15,44.15,0,0,1,1.47,4.67h.12c.41-1.5.94-3,1.54-4.67l3.55-10.26h3.46l-7.16,18.25h-3.17l-6.93-18.25Zm18.32,9.73c.08,4.49,2.94,6.34,6.26,6.34a11.91,11.91,0,0,0,5.05-.95l.57,2.38a14.76,14.76,0,0,1-6.07,1.13c-5.62,0-9-3.7-9-9.2s3.25-9.84,8.56-9.84c6,0,7.54,5.24,7.54,8.59a12.26,12.26,0,0,1-.11,1.55ZM693,480c0-2.12-.87-5.4-4.6-5.4-3.36,0-4.83,3.1-5.09,5.4Z"/>
  <path id="in" class="cls-1" d="M721.71,458.84a3,3,0,0,1-5.92,0,2.92,2.92,0,0,1,3-3A2.84,2.84,0,0,1,721.71,458.84Zm-5.32,33.71V466.24h4.78v26.31Zm12.72-19.19c0-2.72-.06-4.95-.22-7.12h4.24l.27,4.35h.11a9.69,9.69,0,0,1,8.7-4.95c3.64,0,9.3,2.17,9.3,11.2v15.71h-4.79V477.38c0-4.24-1.58-7.77-6.09-7.77a7,7,0,0,0-6.74,7.12v15.82h-4.78Z"/>
  <path id="it4" class="cls-1" d="M772.6,452.1a3.52,3.52,0,0,1-7,0,3.46,3.46,0,0,1,3.55-3.56A3.38,3.38,0,0,1,772.6,452.1Zm-6.33,40V460.88H772v31.27Zm22-40.25v9h8.15v4.33h-8.15v16.86c0,3.88,1.1,6.08,4.27,6.08a12.78,12.78,0,0,0,3.29-.39l.26,4.26a14,14,0,0,1-5,.78,7.85,7.85,0,0,1-6.13-2.39c-1.62-1.68-2.2-4.46-2.2-8.14V465.21h-4.85v-4.33h4.85v-7.49Z"/>
  <path id="but3" class="cls-1" d="M600.49,201a52.84,52.84,0,0,1,.76,10c-.06,5.46-1,9-3.21,11.58a8.89,8.89,0,0,1-7.51,3.42c-4.08,0-7.63-2.79-9.21-7.27h-.12c-1.06,4-4.44,8.68-10.72,8.6a11.39,11.39,0,0,1-8.43-3.68c-2.66-3-3.86-7.77-3.78-14.67a63.24,63.24,0,0,1,.61-8.47Zm-37.66,5a28.85,28.85,0,0,0-.31,4.58c-.07,5.65,1.94,10.88,8.1,11,5.77.07,8.21-4.86,8.29-10.83l.05-4.52Zm20.27.24-.06,5c-.07,5.78,2.91,9.2,7,9.25,5,.06,7-3.68,7-9.21a23.15,23.15,0,0,0-.32-4.83Zm17.48,34.24-25-.3c-9.48-.12-13.55,4-13.61,9.69-.08,6.28,4,10.34,13.37,10.46l25,.29-.06,5.53-24.67-.3c-13-.15-18.25-7.06-18.14-16.22.11-8.66,5.14-15.13,18.26-15l24.92.3Zm-5.16,43.12.16-12.86,4.64.05-.37,31.32-4.65-.05.16-12.93-37.66-.45.06-5.53Z"/>
  <path id="how" class="cls-1" d="M626.48,201.34v11.21h13V201.34h3.49v26.79h-3.49V215.57h-13v12.56H623V201.34Zm45.35,13.12c0,9.22-5.61,14.11-12.44,14.11-7.08,0-12-5.49-12-13.6,0-8.5,5.29-14.07,12.45-14.07C667.1,200.9,671.83,206.51,671.83,214.46ZM651,214.9c0,5.72,3.1,10.85,8.55,10.85s8.58-5.05,8.58-11.13c0-5.33-2.78-10.89-8.54-10.89S651,209,651,214.9Zm29.65,13.23-6.8-26.79h3.66l3.18,13.56c.8,3.33,1.51,6.67,2,9.26h.08c.43-2.67,1.27-5.85,2.18-9.31l3.58-13.51h3.62l3.26,13.6c.75,3.17,1.47,6.35,1.86,9.18h.08c.56-2.94,1.32-5.93,2.15-9.27l3.54-13.51h3.54L699,228.13H695.4L692,214.18a80.12,80.12,0,0,1-1.75-8.74h-.08a83.2,83.2,0,0,1-2.07,8.74l-3.81,13.95Zm31.84-7.59-.08-1a9.1,9.1,0,0,1,2.46-6.88c1.79-2.11,2.78-3.66,2.78-5.45,0-2-1.27-3.37-3.77-3.41a7.06,7.06,0,0,0-4,1.23l-.95-2.51a10.45,10.45,0,0,1,5.68-1.59c4.57,0,6.64,2.83,6.64,5.85,0,2.7-1.51,4.65-3.42,6.91a7.85,7.85,0,0,0-2.26,5.85l0,1Zm-.88,5.56a2.35,2.35,0,0,1,2.39-2.5,2.49,2.49,0,1,1-2.39,2.5Zm13.63,0a2.33,2.33,0,0,1,2.35-2.46A2.28,2.28,0,0,1,730,226.1a2.3,2.3,0,0,1-2.34,2.47A2.33,2.33,0,0,1,725.28,226.1Zm1-5.68-.56-19.08h3.82L729,220.42Z"/>
  <path id="i" class="cls-1" d="M623.91,241.32V257.5h-2.09V241.32Z"/>
  <path id="need" class="cls-1" d="M636,260c0-1.3,0-2.36-.1-3.4h2l.13,2.08h.05a4.62,4.62,0,0,1,4.16-2.37c1.74,0,4.45,1,4.45,5.36v7.51h-2.29v-7.25c0-2-.76-3.72-2.91-3.72a3.26,3.26,0,0,0-3.07,2.34,3.11,3.11,0,0,0-.16,1.06v7.57H636Zm15.71,3.31c0,3.09,2,4.36,4.31,4.36a8.21,8.21,0,0,0,3.49-.65l.39,1.64a10.14,10.14,0,0,1-4.19.78c-3.87,0-6.19-2.55-6.19-6.34s2.24-6.79,5.9-6.79c4.11,0,5.21,3.61,5.21,5.93a10.09,10.09,0,0,1-.08,1.07Zm6.7-1.64c0-1.46-.59-3.72-3.17-3.72-2.31,0-3.33,2.13-3.51,3.72Zm6.32,1.64c0,3.09,2,4.36,4.32,4.36a8.16,8.16,0,0,0,3.48-.65l.39,1.64a10,10,0,0,1-4.18.78c-3.88,0-6.19-2.55-6.19-6.34s2.23-6.79,5.9-6.79c4.11,0,5.2,3.61,5.2,5.93a8,8,0,0,1-.08,1.07Zm6.71-1.64c0-1.46-.6-3.72-3.17-3.72-2.32,0-3.33,2.13-3.51,3.72Zm15.91-11v15.21c0,1.12,0,2.39.11,3.25h-2.06l-.1-2.18h0a4.66,4.66,0,0,1-4.29,2.47c-3.05,0-5.39-2.58-5.39-6.4,0-4.18,2.58-6.76,5.65-6.76a4.19,4.19,0,0,1,3.79,1.93h0v-7.52Zm-2.29,11a3.87,3.87,0,0,0-.1-1,3.36,3.36,0,0,0-3.3-2.65c-2.37,0-3.77,2.08-3.77,4.86,0,2.55,1.25,4.65,3.72,4.65a3.43,3.43,0,0,0,3.35-2.73,3.86,3.86,0,0,0,.1-1Z"/>
  <path id="your" class="cls-1" d="M702.84,266.92l2.76,7.43c.29.83.6,1.82.81,2.58h.05c.23-.76.49-1.72.8-2.63l2.5-7.38h2.42l-3.43,9c-1.64,4.31-2.76,6.52-4.32,7.87a6.3,6.3,0,0,1-2.81,1.49l-.57-1.93a5.84,5.84,0,0,0,2-1.12,6.81,6.81,0,0,0,1.93-2.54,1.79,1.79,0,0,0,.18-.55,1.89,1.89,0,0,0-.16-.6l-4.65-11.59Zm22.55,6.18c0,4.66-3.23,6.69-6.27,6.69-3.41,0-6-2.5-6-6.48,0-4.21,2.75-6.68,6.24-6.68S725.39,269.26,725.39,273.1Zm-10,.13c0,2.76,1.59,4.84,3.82,4.84s3.83-2.05,3.83-4.89c0-2.13-1.07-4.83-3.77-4.83S715.4,270.84,715.4,273.23Zm23.4,2.84c0,1.3,0,2.44.11,3.43h-2l-.13-2.05h0a4.75,4.75,0,0,1-4.16,2.34c-2,0-4.35-1.1-4.35-5.52v-7.35h2.29v7c0,2.4.73,4,2.81,4a3.33,3.33,0,0,0,3-2.08,3.38,3.38,0,0,0,.2-1.17v-7.72h2.29Zm3.8-5.23c0-1.48,0-2.75-.11-3.92h2l.07,2.47h.11a3.78,3.78,0,0,1,3.48-2.76,2.57,2.57,0,0,1,.65.08v2.16a3,3,0,0,0-.78-.08,3.22,3.22,0,0,0-3.07,2.94,6.59,6.59,0,0,0-.1,1.06v6.71H742.6Z"/>
  <path id="help" class="cls-1" d="M621.9,288.67h2.29v7.85h0a4.17,4.17,0,0,1,1.64-1.61,4.69,4.69,0,0,1,2.34-.65c1.69,0,4.39,1,4.39,5.38v7.49h-2.29V299.9c0-2-.75-3.74-2.91-3.74a3.29,3.29,0,0,0-3.07,2.29,2.77,2.77,0,0,0-.15,1.09v7.59H621.9Zm15.7,12.58c0,3.1,2,4.37,4.32,4.37a8.16,8.16,0,0,0,3.48-.65l.39,1.64a10.21,10.21,0,0,1-4.18.78c-3.88,0-6.19-2.55-6.19-6.34s2.23-6.79,5.9-6.79c4.11,0,5.2,3.61,5.2,5.93a7.64,7.64,0,0,1-.08,1.06Zm6.71-1.63c0-1.46-.6-3.72-3.17-3.72-2.32,0-3.33,2.13-3.51,3.72Zm5-10.95h2.29v18.46h-2.29Zm6.14,10c0-1.61,0-2.91-.11-4.1h2.06l.1,2.15h.05a5,5,0,0,1,4.48-2.44c3,0,5.33,2.57,5.33,6.4,0,4.52-2.76,6.76-5.72,6.76a4.42,4.42,0,0,1-3.88-2h0v6.84h-2.26Zm2.26,3.36a5.2,5.2,0,0,0,.1.93,3.54,3.54,0,0,0,3.44,2.68c2.42,0,3.82-2,3.82-4.86,0-2.52-1.33-4.68-3.74-4.68a3.64,3.64,0,0,0-3.46,2.84,3.55,3.55,0,0,0-.16.93Z"/>
  <path id="master" class="cls-1" d="M686.31,308c0-1.3,0-2.36-.1-3.4h2l.1,2h.08a4.34,4.34,0,0,1,4-2.31,3.73,3.73,0,0,1,3.57,2.52H696a5.21,5.21,0,0,1,1.4-1.64,4.32,4.32,0,0,1,2.78-.88c1.67,0,4.14,1.09,4.14,5.46v7.41H702V310c0-2.42-.88-3.88-2.73-3.88a3,3,0,0,0-2.7,2.08,3.6,3.6,0,0,0-.18,1.15v7.77h-2.24v-7.54c0-2-.88-3.46-2.63-3.46a3.12,3.12,0,0,0-2.83,2.29,3.17,3.17,0,0,0-.18,1.12v7.59h-2.24ZM715,317.13l-.18-1.59h-.08a4.67,4.67,0,0,1-3.84,1.88A3.59,3.59,0,0,1,707,313.8c0-3,2.7-4.7,7.56-4.68v-.26a2.59,2.59,0,0,0-2.86-2.91,6.17,6.17,0,0,0-3.27.94l-.52-1.51a7.78,7.78,0,0,1,4.13-1.12c3.85,0,4.79,2.63,4.79,5.15v4.7a18.42,18.42,0,0,0,.2,3Zm-.33-6.42c-2.5,0-5.33.39-5.33,2.83a2,2,0,0,0,2.15,2.19,3.14,3.14,0,0,0,3-2.11,2.61,2.61,0,0,0,.13-.73Zm5.59,4.08a6,6,0,0,0,3,.91c1.67,0,2.45-.83,2.45-1.87s-.65-1.69-2.34-2.32c-2.27-.8-3.33-2.05-3.33-3.56,0-2,1.64-3.69,4.34-3.69a6.23,6.23,0,0,1,3.09.78l-.57,1.66a4.89,4.89,0,0,0-2.57-.72c-1.35,0-2.11.78-2.11,1.71s.76,1.51,2.39,2.13c2.19.84,3.31,1.93,3.31,3.8,0,2.21-1.72,3.77-4.71,3.77a7.2,7.2,0,0,1-3.54-.86Zm13.36-13.86v3.62h3.28v1.74h-3.28v6.79c0,1.55.44,2.44,1.72,2.44a4.93,4.93,0,0,0,1.32-.16l.11,1.72a5.71,5.71,0,0,1-2,.31,3.17,3.17,0,0,1-2.47-1,4.68,4.68,0,0,1-.89-3.28v-6.86h-2v-1.74h2v-3Zm7,10.32c.05,3.1,2,4.37,4.31,4.37a8.21,8.21,0,0,0,3.49-.65l.39,1.64a10.31,10.31,0,0,1-4.19.78c-3.87,0-6.19-2.55-6.19-6.34s2.24-6.79,5.91-6.79c4.1,0,5.2,3.61,5.2,5.93a9.64,9.64,0,0,1-.08,1.06Zm6.71-1.63c0-1.46-.6-3.72-3.18-3.72-2.31,0-3.32,2.13-3.51,3.72Zm5-1.15c0-1.48,0-2.75-.1-3.92h2l.08,2.47h.1a3.78,3.78,0,0,1,3.48-2.76,2.51,2.51,0,0,1,.65.08v2.16a3,3,0,0,0-.78-.08,3.2,3.2,0,0,0-3.06,2.94,5.57,5.57,0,0,0-.11,1.06v6.71H752.3Z"/>
  <path id="you5" class="cls-1" d="M566,104.69V82.87L549.72,53.26h7.56l7.25,14.19c2,3.89,3.51,7,5.11,10.61h.15c1.45-3.36,3.21-6.72,5.19-10.61l7.4-14.19h7.56L572.69,82.79v21.9Zm57.23-18.77c0,13.66-9.46,19.61-18.39,19.61-10,0-17.71-7.33-17.71-19,0-12.36,8.09-19.61,18.32-19.61C616,66.92,623.21,74.63,623.21,85.92Zm-29.3.38c0,8.09,4.65,14.19,11.21,14.19,6.41,0,11.22-6,11.22-14.34,0-6.26-3.13-14.2-11.06-14.2S593.91,79.28,593.91,86.3Zm68.67,8.32c0,3.81.08,7.17.31,10.07h-5.95l-.39-6h-.15a13.89,13.89,0,0,1-12.21,6.87c-5.8,0-12.74-3.2-12.74-16.18V67.76h6.71V88.21c0,7,2.14,11.75,8.24,11.75a9.71,9.71,0,0,0,8.86-6.11,9.83,9.83,0,0,0,.61-3.43V67.76h6.71Z"/>
  <path id="just" class="cls-1" d="M677.11,71.33a3.67,3.67,0,0,0,2.49-1c.63-.73.86-1.72.86-4.73V55.1h2.29V66.52c0,2.44-.39,4-1.51,5.17a5.77,5.77,0,0,1-3.9,1.43ZM683,51.57a1.35,1.35,0,0,1-1.43,1.4,1.37,1.37,0,0,1-1.41-1.4,1.4,1.4,0,0,1,1.46-1.43A1.35,1.35,0,0,1,683,51.57Zm14,12.69c0,1.3,0,2.44.11,3.43h-2l-.13-2h-.05A4.76,4.76,0,0,1,690.75,68c-2,0-4.34-1.1-4.34-5.52V55.1h2.29v7c0,2.4.73,4,2.81,4a3.33,3.33,0,0,0,3-2.08,3.38,3.38,0,0,0,.2-1.17V55.1H697Zm3.48,1.09a6.06,6.06,0,0,0,3,.91c1.66,0,2.44-.83,2.44-1.87s-.64-1.69-2.33-2.32c-2.27-.8-3.33-2-3.33-3.56,0-2,1.63-3.69,4.34-3.69a6.23,6.23,0,0,1,3.09.78l-.57,1.66a4.89,4.89,0,0,0-2.57-.72c-1.35,0-2.11.78-2.11,1.71s.76,1.51,2.39,2.13c2.19.83,3.3,1.93,3.3,3.8,0,2.21-1.71,3.77-4.7,3.77a7.2,7.2,0,0,1-3.54-.86Zm13.37-13.86V55.1h3.27v1.75h-3.27v6.78c0,1.56.44,2.45,1.71,2.45a5,5,0,0,0,1.33-.16l.1,1.72a5.61,5.61,0,0,1-2,.31,3.17,3.17,0,0,1-2.47-1,4.68,4.68,0,0,1-.89-3.28V56.85h-2V55.1h2v-3Z"/>
  <path id="need-2" data-name="need" class="cls-1" d="M697.5,84.51c0-1.3,0-2.36-.11-3.41h2l.13,2.09h.05a4.63,4.63,0,0,1,4.16-2.37c1.75,0,4.45,1,4.45,5.36v7.51h-2.29V86.44c0-2-.75-3.72-2.91-3.72a3.24,3.24,0,0,0-3.07,2.34,3.35,3.35,0,0,0-.15,1.06v7.57H697.5Zm15.7,3.3c0,3.1,2,4.37,4.32,4.37a8.16,8.16,0,0,0,3.48-.65l.39,1.64a10.21,10.21,0,0,1-4.18.78c-3.88,0-6.19-2.55-6.19-6.34s2.23-6.79,5.9-6.79c4.11,0,5.2,3.61,5.2,5.93a7.64,7.64,0,0,1-.08,1.06Zm6.71-1.63c0-1.46-.6-3.72-3.17-3.72-2.32,0-3.33,2.13-3.51,3.72Zm6.32,1.63c0,3.1,2,4.37,4.31,4.37a8.21,8.21,0,0,0,3.49-.65l.39,1.64a10.31,10.31,0,0,1-4.19.78c-3.87,0-6.19-2.55-6.19-6.34s2.24-6.79,5.91-6.79c4.1,0,5.2,3.61,5.2,5.93a9.64,9.64,0,0,1-.08,1.06Zm6.71-1.63c0-1.46-.6-3.72-3.18-3.72-2.31,0-3.32,2.13-3.51,3.72Zm15.91-11V90.44c0,1.12,0,2.39.1,3.25H746.9l-.11-2.18h0A4.65,4.65,0,0,1,742.45,94c-3,0-5.38-2.58-5.38-6.4,0-4.19,2.57-6.76,5.64-6.76a4.21,4.21,0,0,1,3.8,1.92h0V75.23Zm-2.29,11a4.41,4.41,0,0,0-.1-1,3.38,3.38,0,0,0-3.31-2.66c-2.36,0-3.77,2.08-3.77,4.87,0,2.54,1.25,4.65,3.72,4.65a3.44,3.44,0,0,0,3.36-2.73,4.37,4.37,0,0,0,.1-1Z"/>
  <path id="to2" class="cls-1" d="M723,104.49v3.62h3.27v1.74H723v6.79c0,1.55.44,2.44,1.71,2.44a5,5,0,0,0,1.33-.16l.1,1.72a5.61,5.61,0,0,1-2,.31,3.17,3.17,0,0,1-2.47-1,4.68,4.68,0,0,1-.89-3.28v-6.86h-2v-1.74h2v-3Zm17.08,9.8c0,4.66-3.22,6.69-6.27,6.69-3.4,0-6-2.5-6-6.48,0-4.21,2.76-6.68,6.24-6.68S740.06,110.45,740.06,114.29Zm-10,.13c0,2.76,1.58,4.84,3.82,4.84s3.82-2.05,3.82-4.89c0-2.13-1.07-4.83-3.77-4.83S730.08,112,730.08,114.42Z"/>
  <path id="believe2" class="cls-1" d="M635,146.69c.09-1.49.18-3.71.18-5.66V114.55h3.94v13.76h.09a8.17,8.17,0,0,1,7.47-4c5.43,0,9.28,4.53,9.23,11.18,0,7.84-4.93,11.73-9.82,11.73a7.81,7.81,0,0,1-7.34-4.12h-.13l-.18,3.62Zm4.12-8.78a7.57,7.57,0,0,0,.18,1.45,6.15,6.15,0,0,0,6,4.66c4.17,0,6.66-3.39,6.66-8.42,0-4.39-2.27-8.15-6.52-8.15a6.36,6.36,0,0,0-6.07,4.89,7.94,7.94,0,0,0-.22,1.63Zm24-1.45c.09,5.39,3.53,7.61,7.51,7.61a14.34,14.34,0,0,0,6.07-1.14l.68,2.86a17.9,17.9,0,0,1-7.29,1.35c-6.75,0-10.78-4.43-10.78-11s3.9-11.82,10.28-11.82c7.15,0,9,6.29,9,10.32a16.48,16.48,0,0,1-.13,1.86Zm11.68-2.85c0-2.54-1-6.48-5.53-6.48-4,0-5.79,3.72-6.11,6.48Zm8.78-19.06h4v32.14h-4Zm15.12,4.07a2.47,2.47,0,0,1-4.94,0,2.43,2.43,0,0,1,2.49-2.49A2.37,2.37,0,0,1,698.71,118.62Zm-4.44,28.07V124.78h4v21.91Zm12.81-10.23c.09,5.39,3.54,7.61,7.52,7.61a14.34,14.34,0,0,0,6.07-1.14l.67,2.86a17.8,17.8,0,0,1-7.28,1.35c-6.75,0-10.78-4.43-10.78-11s3.89-11.82,10.28-11.82c7.15,0,9.05,6.29,9.05,10.32a16.48,16.48,0,0,1-.13,1.86Zm11.68-2.85c0-2.54-1-6.48-5.52-6.48-4,0-5.79,3.72-6.11,6.48Zm10.32-8.83,4.31,12.31a57.52,57.52,0,0,1,1.76,5.62h.14c.5-1.81,1.13-3.62,1.85-5.62l4.26-12.31h4.16L737,146.69h-3.8l-8.33-21.91Zm22,11.68c.09,5.39,3.53,7.61,7.51,7.61a14.27,14.27,0,0,0,6.07-1.14l.68,2.86a17.82,17.82,0,0,1-7.29,1.35c-6.75,0-10.77-4.43-10.77-11s3.89-11.82,10.27-11.82c7.15,0,9.06,6.29,9.06,10.32a14,14,0,0,1-.14,1.86Zm11.68-2.85c0-2.54-1-6.48-5.52-6.48-4,0-5.8,3.72-6.12,6.48Z"/>
  <path id="promise" class="cls-1" d="M372.19,168.67a47.8,47.8,0,0,1,.6,7.78c0,4-.93,6.94-2.61,8.8a8.44,8.44,0,0,1-6.56,2.75,9.26,9.26,0,0,1-6.71-2.42c-2.28-2.15-3.45-5.64-3.45-9.6a14.1,14.1,0,0,1,.28-3.26H341.17v-4.05Zm-15.14,4.05a13.74,13.74,0,0,0-.33,3.36c0,4.88,2.38,7.87,6.71,7.87,4.15,0,6.15-2.94,6.15-7.41a16.74,16.74,0,0,0-.33-3.82Zm-.37,19.84c2.65,0,4.93,0,7-.18V196l-4.42.14v.19a6.76,6.76,0,0,1,4.93,6.24,4.15,4.15,0,0,1-.14,1.16h-3.86a6.34,6.34,0,0,0,.14-1.39c0-2.89-2.19-4.94-5.27-5.5a11.75,11.75,0,0,0-1.91-.19h-12v-4.05Zm-4.05,35.16c-8.34,0-12-5.77-12-11.22,0-6.1,4.47-10.8,11.59-10.8,7.55,0,12,4.93,12,11.17C364.22,223.35,359.52,227.72,352.63,227.72Zm-.24-17.88c-4.93,0-8.66,2.84-8.66,6.85s3.68,6.84,8.76,6.84c3.81,0,8.66-1.91,8.66-6.75S356.68,209.84,352.39,209.84Zm5.22,23.06c2.33,0,4.24-.05,6.1-.19v3.58l-3.63.19v.14a7.77,7.77,0,0,1,4.14,7.08,6.67,6.67,0,0,1-4.51,6.38v.09a9.42,9.42,0,0,1,2.93,2.52,7.71,7.71,0,0,1,1.58,5c0,3-2,7.41-9.78,7.41H341.17v-4h12.76c4.33,0,6.94-1.58,6.94-4.89a5.3,5.3,0,0,0-3.73-4.84,6.62,6.62,0,0,0-2.05-.33H341.17v-4h13.5c3.59,0,6.2-1.59,6.2-4.71a5.59,5.59,0,0,0-4.1-5.07,5.46,5.46,0,0,0-2-.33h-13.6v-4Zm-16.44,38.84h22.54v4.1H341.17ZM370,276.3a2.54,2.54,0,0,1,0-5.07,2.49,2.49,0,0,1,2.56,2.56A2.43,2.43,0,0,1,370,276.3Zm-24.68,5.78a10.74,10.74,0,0,0-1.63,5.4c0,3,1.49,4.38,3.35,4.38s3-1.17,4.15-4.2c1.44-4.05,3.68-6,6.38-6,3.63,0,6.61,2.94,6.61,7.78a11.29,11.29,0,0,1-1.39,5.54l-3-1a8.79,8.79,0,0,0,1.31-4.61c0-2.42-1.4-3.77-3.07-3.77-1.87,0-2.71,1.35-3.82,4.28-1.49,3.91-3.45,5.91-6.8,5.91-4,0-6.76-3.07-6.76-8.42a12.88,12.88,0,0,1,1.54-6.34Zm6.33,21.28c-5.54.09-7.82,3.63-7.82,7.73a14.7,14.7,0,0,0,1.17,6.24l-2.94.7a18.26,18.26,0,0,1-1.4-7.5c0-6.94,4.57-11.08,11.37-11.08s12.15,4,12.15,10.57c0,7.36-6.47,9.31-10.62,9.31a14.94,14.94,0,0,1-1.91-.14Zm2.94,12c2.61,0,6.66-1.08,6.66-5.69,0-4.14-3.82-6-6.66-6.28Z"/>
  <path id="me" class="cls-1" d="M374.9,298c0-1.3,0-2.36-.11-3.4h2l.1,2H377a4.34,4.34,0,0,1,3.95-2.31,3.71,3.71,0,0,1,3.56,2.52h.05a5.23,5.23,0,0,1,1.41-1.64,4.28,4.28,0,0,1,2.78-.88c1.66,0,4.13,1.09,4.13,5.46v7.41h-2.23V300c0-2.42-.89-3.88-2.73-3.88a3,3,0,0,0-2.71,2.08,3.91,3.91,0,0,0-.18,1.15v7.77h-2.23v-7.54c0-2-.89-3.46-2.63-3.46a3.12,3.12,0,0,0-2.83,2.29,3.18,3.18,0,0,0-.19,1.12v7.59H374.9Zm23,3.3c.05,3.1,2,4.37,4.31,4.37a8.21,8.21,0,0,0,3.49-.65l.39,1.64a10.31,10.31,0,0,1-4.19.78c-3.87,0-6.19-2.55-6.19-6.34s2.24-6.79,5.9-6.79c4.11,0,5.2,3.61,5.2,5.93a10.23,10.23,0,0,1-.07,1.06Zm6.7-1.63c0-1.46-.59-3.72-3.17-3.72-2.31,0-3.33,2.13-3.51,3.72Z"/>
  <path id="shifu" class="cls-1" d="M377.94,275.78a10.85,10.85,0,0,0,5.47,1.55c3.12,0,4.95-1.65,4.95-4,0-2.21-1.27-3.47-4.46-4.7-3.86-1.36-6.24-3.36-6.24-6.69,0-3.68,3-6.42,7.64-6.42a10.71,10.71,0,0,1,5.23,1.16l-.84,2.49A9.43,9.43,0,0,0,385.2,258c-3.23,0-4.45,1.92-4.45,3.54,0,2.21,1.43,3.29,4.7,4.56,4,1.54,6,3.47,6,6.94,0,3.64-2.7,6.8-8.28,6.8a12.22,12.22,0,0,1-6-1.51Zm17.61-21.18h3.08v10.59h.07a5.76,5.76,0,0,1,2.21-2.17,6.31,6.31,0,0,1,3.16-.88c2.28,0,5.92,1.41,5.92,7.26v10.1h-3.08v-9.75c0-2.73-1-5.05-3.93-5.05a4.44,4.44,0,0,0-4.14,3.09,3.84,3.84,0,0,0-.21,1.47V279.5h-3.08Zm22.9,3.16a1.91,1.91,0,0,1-3.82,0,1.87,1.87,0,0,1,1.92-1.93A1.83,1.83,0,0,1,418.45,257.76ZM415,279.5v-17h3.09v17Zm8.52,0V264.88h-2.38v-2.35h2.38v-.81c0-2.38.53-4.56,2-5.92a5.85,5.85,0,0,1,4.13-1.58,7,7,0,0,1,2.63.49l-.42,2.38a4.57,4.57,0,0,0-2-.38c-2.63,0-3.3,2.31-3.3,4.91v.91h4.11v2.35h-4.11V279.5Zm24.13-4.63c0,1.75,0,3.3.14,4.63h-2.74l-.17-2.77h-.07a6.39,6.39,0,0,1-5.61,3.16c-2.67,0-5.86-1.48-5.86-7.44v-9.92h3.09v9.4c0,3.22,1,5.4,3.79,5.4a4.35,4.35,0,0,0,4.34-4.39V262.53h3.09Z"/>
  <path id="promise2" class="cls-1" d="M397.37,233.75c0-1.57-.05-2.84-.11-4h2l.1,2.1h.05a4.81,4.81,0,0,1,4.36-2.38c3,0,5.2,2.51,5.2,6.24,0,4.41-2.69,6.59-5.58,6.59a4.31,4.31,0,0,1-3.78-1.93h-.05V247h-2.2Zm2.2,3.27a5.18,5.18,0,0,0,.1.92,3.45,3.45,0,0,0,3.35,2.61c2.36,0,3.73-1.93,3.73-4.74,0-2.46-1.29-4.57-3.65-4.57a3.58,3.58,0,0,0-3.38,2.77,3.76,3.76,0,0,0-.15.91Zm12.23-3.45c0-1.44,0-2.68-.1-3.82h1.95l.08,2.4h.1a3.69,3.69,0,0,1,3.4-2.68,2.43,2.43,0,0,1,.63.07v2.11a3.41,3.41,0,0,0-.76-.08,3.13,3.13,0,0,0-3,2.87,6.26,6.26,0,0,0-.11,1V242h-2.2ZM431,235.78c0,4.54-3.15,6.52-6.11,6.52-3.33,0-5.89-2.44-5.89-6.32,0-4.1,2.69-6.51,6.09-6.51S431,232,431,235.78Zm-9.74.13c0,2.69,1.55,4.71,3.73,4.71s3.73-2,3.73-4.76c0-2.08-1-4.72-3.68-4.72S421.21,233.57,421.21,235.91Zm12.56-2.84c0-1.27,0-2.31-.11-3.32h2l.1,2h.07a4.25,4.25,0,0,1,3.86-2.25,3.62,3.62,0,0,1,3.47,2.46h.05a5.09,5.09,0,0,1,1.37-1.6,4.2,4.2,0,0,1,2.72-.86c1.62,0,4,1.06,4,5.32V242h-2.18v-7c0-2.36-.86-3.78-2.66-3.78a2.89,2.89,0,0,0-2.64,2,3.75,3.75,0,0,0-.18,1.12V242h-2.18v-7.35c0-2-.86-3.38-2.56-3.38a3.06,3.06,0,0,0-2.77,2.23,3.23,3.23,0,0,0-.17,1.09V242h-2.18Zm23.64-6.77a1.39,1.39,0,0,1-2.77,0,1.36,1.36,0,0,1,1.4-1.4A1.33,1.33,0,0,1,457.41,226.3ZM454.92,242V229.75h2.23V242Zm5.63-2.28a5.87,5.87,0,0,0,2.94.88c1.63,0,2.39-.81,2.39-1.82s-.64-1.65-2.29-2.26c-2.2-.78-3.24-2-3.24-3.47,0-2,1.6-3.6,4.23-3.6a6.05,6.05,0,0,1,3,.76l-.56,1.62a4.81,4.81,0,0,0-2.51-.71c-1.32,0-2,.76-2,1.67s.73,1.47,2.33,2.08c2.13.82,3.22,1.88,3.22,3.71,0,2.15-1.67,3.67-4.59,3.67a7.12,7.12,0,0,1-3.45-.83Zm11.59-3.45c.05,3,2,4.26,4.21,4.26a8,8,0,0,0,3.4-.64l.38,1.6a9.87,9.87,0,0,1-4.08.76c-3.78,0-6-2.48-6-6.18s2.18-6.62,5.76-6.62c4,0,5.07,3.52,5.07,5.78a10,10,0,0,1-.07,1Zm6.55-1.6c0-1.42-.59-3.63-3.1-3.63-2.26,0-3.24,2.08-3.42,3.63Z"/>
  <path id="me2" class="cls-1" d="M462.6,201.56c0-2.35-.05-4.27-.19-6.14H466l.18,3.65h.14a7.84,7.84,0,0,1,7.12-4.17,6.7,6.7,0,0,1,6.42,4.55h.1a9.18,9.18,0,0,1,2.53-2.95,7.73,7.73,0,0,1,5-1.6c3,0,7.45,2,7.45,9.84v13.35h-4V205.26c0-4.36-1.59-7-4.92-7a5.33,5.33,0,0,0-4.87,3.74,6.79,6.79,0,0,0-.33,2.06v14h-4V204.51c0-3.61-1.59-6.23-4.73-6.23A5.64,5.64,0,0,0,467,202.4a5.77,5.77,0,0,0-.32,2v13.68h-4ZM504,207.5c.09,5.58,3.65,7.87,7.77,7.87A14.88,14.88,0,0,0,518,214.2l.7,3a18.25,18.25,0,0,1-7.54,1.41c-7,0-11.15-4.59-11.15-11.43s4-12.23,10.64-12.23c7.4,0,9.36,6.51,9.36,10.68a14.82,14.82,0,0,1-.14,1.92Zm12.08-2.95c.05-2.62-1.08-6.7-5.71-6.7-4.17,0-6,3.85-6.33,6.7Z"/>
  <path id="you6" class="cls-1" d="M384.52,167.71l3.09,8.34c.32.94.67,2,.91,2.89h.06c.26-.85.55-1.92.9-2.95l2.8-8.28H395l-3.85,10.06c-1.84,4.85-3.09,7.33-4.84,8.84a7,7,0,0,1-3.15,1.67l-.64-2.16a6.87,6.87,0,0,0,2.24-1.26,7.66,7.66,0,0,0,2.16-2.86,1.75,1.75,0,0,0,.21-.61,2.22,2.22,0,0,0-.18-.67l-5.22-13Zm25.3,6.94c0,5.22-3.62,7.5-7,7.5-3.82,0-6.76-2.8-6.76-7.26,0-4.73,3.09-7.5,7-7.5S409.82,170.33,409.82,174.65Zm-11.21.15c0,3.09,1.78,5.42,4.29,5.42s4.29-2.3,4.29-5.48c0-2.39-1.2-5.43-4.23-5.43S398.61,172.11,398.61,174.8ZM424.87,178c0,1.46,0,2.74.12,3.85h-2.28l-.14-2.31h-.06a5.31,5.31,0,0,1-4.67,2.63c-2.22,0-4.87-1.23-4.87-6.19v-8.25h2.56v7.82c0,2.68.82,4.49,3.16,4.49a3.6,3.6,0,0,0,3.61-3.65v-8.66h2.57Z"/>
  <path id="will2" class="cls-1" d="M438.37,169.24l1.66,6.4c.36,1.4.7,2.7.94,4H441c.29-1.27.71-2.62,1.12-4l2.06-6.43h1.92l1.95,6.3c.47,1.5.83,2.83,1.12,4.1h.08a35.22,35.22,0,0,1,1-4.08l1.79-6.32h2.26l-4.05,12.59h-2.08l-1.93-6a41.69,41.69,0,0,1-1.11-4.13h-.06a37,37,0,0,1-1.14,4.16l-2,6h-2.08L436,169.24Zm20.77-3.53a1.42,1.42,0,0,1-2.83,0,1.39,1.39,0,0,1,1.43-1.43A1.36,1.36,0,0,1,459.14,165.71Zm-2.55,16.12V169.24h2.29v12.59Zm6.09-18.46H465v18.46h-2.28Zm6.13,0h2.29v18.46h-2.29Z"/>
  <path id="believe3" class="cls-1" d="M494.38,11.5c1.92.12,4.77.23,7.26.23h34v5.05H518v.12c3.14,1.8,5.17,5.05,5.17,9.58,0,7-5.81,11.91-14.34,11.85-10.05,0-15-6.33-15-12.6,0-4.07,1.56-7.32,5.28-9.41v-.17l-4.65-.24Zm11.27,5.28a9.27,9.27,0,0,0-1.86.24,7.88,7.88,0,0,0-6,7.66c0,5.35,4.36,8.54,10.8,8.54,5.64,0,10.46-2.9,10.46-8.36a8.15,8.15,0,0,0-6.28-7.79,10.42,10.42,0,0,0-2.09-.29Zm1.86,30.84c-6.91.12-9.76,4.53-9.76,9.64a18.4,18.4,0,0,0,1.46,7.79l-3.66.87a22.63,22.63,0,0,1-1.75-9.35c0-8.66,5.7-13.82,14.17-13.82s15.16,5,15.16,13.18c0,9.17-8.07,11.61-13.24,11.61a19.09,19.09,0,0,1-2.38-.17Zm3.66,15c3.25.06,8.3-1.34,8.3-7.09,0-5.17-4.76-7.43-8.3-7.84Zm24.45,11.27V79H494.38V73.88Zm-41.24,13.7h28.11v5.11H494.38Zm36,5.69a3.17,3.17,0,0,1,0-6.33,3.11,3.11,0,0,1,3.19,3.2A3,3,0,0,1,530.39,93.27ZM507.51,104c-6.91.12-9.76,4.53-9.76,9.64a18.32,18.32,0,0,0,1.46,7.78l-3.66.87A22.59,22.59,0,0,1,493.8,113c0-8.65,5.7-13.82,14.17-13.82s15.16,5,15.16,13.18c0,9.18-8.07,11.62-13.24,11.62a21.28,21.28,0,0,1-2.38-.17Zm3.66,15c3.25.06,8.3-1.33,8.3-7.08,0-5.17-4.76-7.44-8.3-7.84Zm11.32,13.25-15.79,5.51a72.58,72.58,0,0,1-7.2,2.27v.17c2.32.64,4.64,1.45,7.2,2.38L522.49,148v5.35l-28.11-11v-4.88l28.11-10.68Zm-15,28.22c-6.91.12-9.76,4.53-9.76,9.64a18.4,18.4,0,0,0,1.46,7.79l-3.66.87a22.63,22.63,0,0,1-1.75-9.35c0-8.66,5.7-13.82,14.17-13.82s15.16,5,15.16,13.18c0,9.17-8.07,11.61-13.24,11.61a19.09,19.09,0,0,1-2.38-.17Zm3.66,15c3.25,0,8.3-1.34,8.3-7.09,0-5.17-4.76-7.43-8.3-7.84Z"/>
</svg>
